<svg width="1000" height="1000"> 
<line x1="500" y1="500"
	  x2="500.0" y2="400.0"
	  stroke-width="3"
	  stroke="black"/>
<line x1="500.0" y1="400.0"
	  x2="429.289321881" y2="329.289321881"
	  stroke-width="3"
	  stroke="black"/>
<line x1="429.289321881" y1="329.289321881"
	  x2="500.0" y2="400.0"
	  stroke-width="3"
	  stroke="black"/>
<line x1="500.0" y1="400.0"
	  x2="570.710678119" y2="329.289321881"
	  stroke-width="3"
	  stroke="black"/>
<line x1="429.289321881" y1="329.289321881"
	  x2="379.289321881" y2="329.289321881"
	  stroke-width="3"
	  stroke="black"/>
<line x1="379.289321881" y1="329.289321881"
	  x2="429.289321881" y2="329.289321881"
	  stroke-width="3"
	  stroke="black"/>
<line x1="429.289321881" y1="329.289321881"
	  x2="429.289321881" y2="279.289321881"
	  stroke-width="3"
	  stroke="black"/>
<line x1="379.289321881" y1="329.289321881"
	  x2="361.611652352" y2="346.966991411"
	  stroke-width="3"
	  stroke="black"/>
<line x1="361.611652352" y1="346.966991411"
	  x2="379.289321881" y2="329.289321881"
	  stroke-width="3"
	  stroke="black"/>
<line x1="379.289321881" y1="329.289321881"
	  x2="361.611652352" y2="311.611652352"
	  stroke-width="3"
	  stroke="black"/>
<line x1="361.611652352" y1="346.966991411"
	  x2="361.611652352" y2="358.966991411"
	  stroke-width="3"
	  stroke="black"/>
<line x1="361.611652352" y1="358.966991411"
	  x2="361.611652352" y2="346.966991411"
	  stroke-width="3"
	  stroke="black"/>
<line x1="361.611652352" y1="346.966991411"
	  x2="349.611652352" y2="346.966991411"
	  stroke-width="3"
	  stroke="black"/>
<line x1="361.611652352" y1="358.966991411"
	  x2="365.854293039" y2="363.209632098"
	  stroke-width="3"
	  stroke="black"/>
<line x1="365.854293039" y1="363.209632098"
	  x2="361.611652352" y2="358.966991411"
	  stroke-width="3"
	  stroke="black"/>
<line x1="361.611652352" y1="358.966991411"
	  x2="357.369011665" y2="363.209632098"
	  stroke-width="3"
	  stroke="black"/>
<line x1="365.854293039" y1="363.209632098"
	  x2="368.854293039" y2="363.209632098"
	  stroke-width="3"
	  stroke="black"/>
<line x1="368.854293039" y1="363.209632098"
	  x2="365.854293039" y2="363.209632098"
	  stroke-width="3"
	  stroke="black"/>
<line x1="365.854293039" y1="363.209632098"
	  x2="365.854293039" y2="366.209632098"
	  stroke-width="3"
	  stroke="black"/>
<line x1="368.854293039" y1="363.209632098"
	  x2="369.56139982" y2="362.502525317"
	  stroke-width="3"
	  stroke="black"/>
<line x1="369.56139982" y1="362.502525317"
	  x2="368.854293039" y2="363.209632098"
	  stroke-width="3"
	  stroke="black"/>
<line x1="368.854293039" y1="363.209632098"
	  x2="369.56139982" y2="363.916738879"
	  stroke-width="3"
	  stroke="black"/>
<line x1="365.854293039" y1="366.209632098"
	  x2="366.56139982" y2="366.916738879"
	  stroke-width="3"
	  stroke="black"/>
<line x1="366.56139982" y1="366.916738879"
	  x2="365.854293039" y2="366.209632098"
	  stroke-width="3"
	  stroke="black"/>
<line x1="365.854293039" y1="366.209632098"
	  x2="365.147186258" y2="366.916738879"
	  stroke-width="3"
	  stroke="black"/>
<line x1="357.369011665" y1="363.209632098"
	  x2="357.369011665" y2="366.209632098"
	  stroke-width="3"
	  stroke="black"/>
<line x1="357.369011665" y1="366.209632098"
	  x2="357.369011665" y2="363.209632098"
	  stroke-width="3"
	  stroke="black"/>
<line x1="357.369011665" y1="363.209632098"
	  x2="354.369011665" y2="363.209632098"
	  stroke-width="3"
	  stroke="black"/>
<line x1="357.369011665" y1="366.209632098"
	  x2="358.076118446" y2="366.916738879"
	  stroke-width="3"
	  stroke="black"/>
<line x1="358.076118446" y1="366.916738879"
	  x2="357.369011665" y2="366.209632098"
	  stroke-width="3"
	  stroke="black"/>
<line x1="357.369011665" y1="366.209632098"
	  x2="356.661904883" y2="366.916738879"
	  stroke-width="3"
	  stroke="black"/>
<line x1="354.369011665" y1="363.209632098"
	  x2="353.661904883" y2="363.916738879"
	  stroke-width="3"
	  stroke="black"/>
<line x1="353.661904883" y1="363.916738879"
	  x2="354.369011665" y2="363.209632098"
	  stroke-width="3"
	  stroke="black"/>
<line x1="354.369011665" y1="363.209632098"
	  x2="353.661904883" y2="362.502525317"
	  stroke-width="3"
	  stroke="black"/>
<line x1="349.611652352" y1="346.966991411"
	  x2="345.369011665" y2="351.209632098"
	  stroke-width="3"
	  stroke="black"/>
<line x1="345.369011665" y1="351.209632098"
	  x2="349.611652352" y2="346.966991411"
	  stroke-width="3"
	  stroke="black"/>
<line x1="349.611652352" y1="346.966991411"
	  x2="345.369011665" y2="342.724350724"
	  stroke-width="3"
	  stroke="black"/>
<line x1="345.369011665" y1="351.209632098"
	  x2="345.369011665" y2="354.209632098"
	  stroke-width="3"
	  stroke="black"/>
<line x1="345.369011665" y1="354.209632098"
	  x2="345.369011665" y2="351.209632098"
	  stroke-width="3"
	  stroke="black"/>
<line x1="345.369011665" y1="351.209632098"
	  x2="342.369011665" y2="351.209632098"
	  stroke-width="3"
	  stroke="black"/>
<line x1="345.369011665" y1="354.209632098"
	  x2="346.076118446" y2="354.916738879"
	  stroke-width="3"
	  stroke="black"/>
<line x1="346.076118446" y1="354.916738879"
	  x2="345.369011665" y2="354.209632098"
	  stroke-width="3"
	  stroke="black"/>
<line x1="345.369011665" y1="354.209632098"
	  x2="344.661904883" y2="354.916738879"
	  stroke-width="3"
	  stroke="black"/>
<line x1="342.369011665" y1="351.209632098"
	  x2="341.661904883" y2="351.916738879"
	  stroke-width="3"
	  stroke="black"/>
<line x1="341.661904883" y1="351.916738879"
	  x2="342.369011665" y2="351.209632098"
	  stroke-width="3"
	  stroke="black"/>
<line x1="342.369011665" y1="351.209632098"
	  x2="341.661904883" y2="350.502525317"
	  stroke-width="3"
	  stroke="black"/>
<line x1="345.369011665" y1="342.724350724"
	  x2="342.369011665" y2="342.724350724"
	  stroke-width="3"
	  stroke="black"/>
<line x1="342.369011665" y1="342.724350724"
	  x2="345.369011665" y2="342.724350724"
	  stroke-width="3"
	  stroke="black"/>
<line x1="345.369011665" y1="342.724350724"
	  x2="345.369011665" y2="339.724350724"
	  stroke-width="3"
	  stroke="black"/>
<line x1="342.369011665" y1="342.724350724"
	  x2="341.661904883" y2="343.431457505"
	  stroke-width="3"
	  stroke="black"/>
<line x1="341.661904883" y1="343.431457505"
	  x2="342.369011665" y2="342.724350724"
	  stroke-width="3"
	  stroke="black"/>
<line x1="342.369011665" y1="342.724350724"
	  x2="341.661904883" y2="342.017243943"
	  stroke-width="3"
	  stroke="black"/>
<line x1="345.369011665" y1="339.724350724"
	  x2="344.661904883" y2="339.017243943"
	  stroke-width="3"
	  stroke="black"/>
<line x1="344.661904883" y1="339.017243943"
	  x2="345.369011665" y2="339.724350724"
	  stroke-width="3"
	  stroke="black"/>
<line x1="345.369011665" y1="339.724350724"
	  x2="346.076118446" y2="339.017243943"
	  stroke-width="3"
	  stroke="black"/>
<line x1="361.611652352" y1="311.611652352"
	  x2="349.611652352" y2="311.611652352"
	  stroke-width="3"
	  stroke="black"/>
<line x1="349.611652352" y1="311.611652352"
	  x2="361.611652352" y2="311.611652352"
	  stroke-width="3"
	  stroke="black"/>
<line x1="361.611652352" y1="311.611652352"
	  x2="361.611652352" y2="299.611652352"
	  stroke-width="3"
	  stroke="black"/>
<line x1="349.611652352" y1="311.611652352"
	  x2="345.369011665" y2="315.854293039"
	  stroke-width="3"
	  stroke="black"/>
<line x1="345.369011665" y1="315.854293039"
	  x2="349.611652352" y2="311.611652352"
	  stroke-width="3"
	  stroke="black"/>
<line x1="349.611652352" y1="311.611652352"
	  x2="345.369011665" y2="307.369011665"
	  stroke-width="3"
	  stroke="black"/>
<line x1="345.369011665" y1="315.854293039"
	  x2="345.369011665" y2="318.854293039"
	  stroke-width="3"
	  stroke="black"/>
<line x1="345.369011665" y1="318.854293039"
	  x2="345.369011665" y2="315.854293039"
	  stroke-width="3"
	  stroke="black"/>
<line x1="345.369011665" y1="315.854293039"
	  x2="342.369011665" y2="315.854293039"
	  stroke-width="3"
	  stroke="black"/>
<line x1="345.369011665" y1="318.854293039"
	  x2="346.076118446" y2="319.56139982"
	  stroke-width="3"
	  stroke="black"/>
<line x1="346.076118446" y1="319.56139982"
	  x2="345.369011665" y2="318.854293039"
	  stroke-width="3"
	  stroke="black"/>
<line x1="345.369011665" y1="318.854293039"
	  x2="344.661904883" y2="319.56139982"
	  stroke-width="3"
	  stroke="black"/>
<line x1="342.369011665" y1="315.854293039"
	  x2="341.661904883" y2="316.56139982"
	  stroke-width="3"
	  stroke="black"/>
<line x1="341.661904883" y1="316.56139982"
	  x2="342.369011665" y2="315.854293039"
	  stroke-width="3"
	  stroke="black"/>
<line x1="342.369011665" y1="315.854293039"
	  x2="341.661904883" y2="315.147186258"
	  stroke-width="3"
	  stroke="black"/>
<line x1="345.369011665" y1="307.369011665"
	  x2="342.369011665" y2="307.369011665"
	  stroke-width="3"
	  stroke="black"/>
<line x1="342.369011665" y1="307.369011665"
	  x2="345.369011665" y2="307.369011665"
	  stroke-width="3"
	  stroke="black"/>
<line x1="345.369011665" y1="307.369011665"
	  x2="345.369011665" y2="304.369011665"
	  stroke-width="3"
	  stroke="black"/>
<line x1="342.369011665" y1="307.369011665"
	  x2="341.661904883" y2="308.076118446"
	  stroke-width="3"
	  stroke="black"/>
<line x1="341.661904883" y1="308.076118446"
	  x2="342.369011665" y2="307.369011665"
	  stroke-width="3"
	  stroke="black"/>
<line x1="342.369011665" y1="307.369011665"
	  x2="341.661904883" y2="306.661904883"
	  stroke-width="3"
	  stroke="black"/>
<line x1="345.369011665" y1="304.369011665"
	  x2="344.661904883" y2="303.661904883"
	  stroke-width="3"
	  stroke="black"/>
<line x1="344.661904883" y1="303.661904883"
	  x2="345.369011665" y2="304.369011665"
	  stroke-width="3"
	  stroke="black"/>
<line x1="345.369011665" y1="304.369011665"
	  x2="346.076118446" y2="303.661904883"
	  stroke-width="3"
	  stroke="black"/>
<line x1="361.611652352" y1="299.611652352"
	  x2="357.369011665" y2="295.369011665"
	  stroke-width="3"
	  stroke="black"/>
<line x1="357.369011665" y1="295.369011665"
	  x2="361.611652352" y2="299.611652352"
	  stroke-width="3"
	  stroke="black"/>
<line x1="361.611652352" y1="299.611652352"
	  x2="365.854293039" y2="295.369011665"
	  stroke-width="3"
	  stroke="black"/>
<line x1="357.369011665" y1="295.369011665"
	  x2="354.369011665" y2="295.369011665"
	  stroke-width="3"
	  stroke="black"/>
<line x1="354.369011665" y1="295.369011665"
	  x2="357.369011665" y2="295.369011665"
	  stroke-width="3"
	  stroke="black"/>
<line x1="357.369011665" y1="295.369011665"
	  x2="357.369011665" y2="292.369011665"
	  stroke-width="3"
	  stroke="black"/>
<line x1="354.369011665" y1="295.369011665"
	  x2="353.661904883" y2="296.076118446"
	  stroke-width="3"
	  stroke="black"/>
<line x1="353.661904883" y1="296.076118446"
	  x2="354.369011665" y2="295.369011665"
	  stroke-width="3"
	  stroke="black"/>
<line x1="354.369011665" y1="295.369011665"
	  x2="353.661904883" y2="294.661904883"
	  stroke-width="3"
	  stroke="black"/>
<line x1="357.369011665" y1="292.369011665"
	  x2="356.661904883" y2="291.661904883"
	  stroke-width="3"
	  stroke="black"/>
<line x1="356.661904883" y1="291.661904883"
	  x2="357.369011665" y2="292.369011665"
	  stroke-width="3"
	  stroke="black"/>
<line x1="357.369011665" y1="292.369011665"
	  x2="358.076118446" y2="291.661904883"
	  stroke-width="3"
	  stroke="black"/>
<line x1="365.854293039" y1="295.369011665"
	  x2="365.854293039" y2="292.369011665"
	  stroke-width="3"
	  stroke="black"/>
<line x1="365.854293039" y1="292.369011665"
	  x2="365.854293039" y2="295.369011665"
	  stroke-width="3"
	  stroke="black"/>
<line x1="365.854293039" y1="295.369011665"
	  x2="368.854293039" y2="295.369011665"
	  stroke-width="3"
	  stroke="black"/>
<line x1="365.854293039" y1="292.369011665"
	  x2="365.147186258" y2="291.661904883"
	  stroke-width="3"
	  stroke="black"/>
<line x1="365.147186258" y1="291.661904883"
	  x2="365.854293039" y2="292.369011665"
	  stroke-width="3"
	  stroke="black"/>
<line x1="365.854293039" y1="292.369011665"
	  x2="366.56139982" y2="291.661904883"
	  stroke-width="3"
	  stroke="black"/>
<line x1="368.854293039" y1="295.369011665"
	  x2="369.56139982" y2="294.661904883"
	  stroke-width="3"
	  stroke="black"/>
<line x1="369.56139982" y1="294.661904883"
	  x2="368.854293039" y2="295.369011665"
	  stroke-width="3"
	  stroke="black"/>
<line x1="368.854293039" y1="295.369011665"
	  x2="369.56139982" y2="296.076118446"
	  stroke-width="3"
	  stroke="black"/>
<line x1="429.289321881" y1="279.289321881"
	  x2="411.611652352" y2="261.611652352"
	  stroke-width="3"
	  stroke="black"/>
<line x1="411.611652352" y1="261.611652352"
	  x2="429.289321881" y2="279.289321881"
	  stroke-width="3"
	  stroke="black"/>
<line x1="429.289321881" y1="279.289321881"
	  x2="446.966991411" y2="261.611652352"
	  stroke-width="3"
	  stroke="black"/>
<line x1="411.611652352" y1="261.611652352"
	  x2="399.611652352" y2="261.611652352"
	  stroke-width="3"
	  stroke="black"/>
<line x1="399.611652352" y1="261.611652352"
	  x2="411.611652352" y2="261.611652352"
	  stroke-width="3"
	  stroke="black"/>
<line x1="411.611652352" y1="261.611652352"
	  x2="411.611652352" y2="249.611652352"
	  stroke-width="3"
	  stroke="black"/>
<line x1="399.611652352" y1="261.611652352"
	  x2="395.369011665" y2="265.854293039"
	  stroke-width="3"
	  stroke="black"/>
<line x1="395.369011665" y1="265.854293039"
	  x2="399.611652352" y2="261.611652352"
	  stroke-width="3"
	  stroke="black"/>
<line x1="399.611652352" y1="261.611652352"
	  x2="395.369011665" y2="257.369011665"
	  stroke-width="3"
	  stroke="black"/>
<line x1="395.369011665" y1="265.854293039"
	  x2="395.369011665" y2="268.854293039"
	  stroke-width="3"
	  stroke="black"/>
<line x1="395.369011665" y1="268.854293039"
	  x2="395.369011665" y2="265.854293039"
	  stroke-width="3"
	  stroke="black"/>
<line x1="395.369011665" y1="265.854293039"
	  x2="392.369011665" y2="265.854293039"
	  stroke-width="3"
	  stroke="black"/>
<line x1="395.369011665" y1="268.854293039"
	  x2="396.076118446" y2="269.56139982"
	  stroke-width="3"
	  stroke="black"/>
<line x1="396.076118446" y1="269.56139982"
	  x2="395.369011665" y2="268.854293039"
	  stroke-width="3"
	  stroke="black"/>
<line x1="395.369011665" y1="268.854293039"
	  x2="394.661904883" y2="269.56139982"
	  stroke-width="3"
	  stroke="black"/>
<line x1="392.369011665" y1="265.854293039"
	  x2="391.661904883" y2="266.56139982"
	  stroke-width="3"
	  stroke="black"/>
<line x1="391.661904883" y1="266.56139982"
	  x2="392.369011665" y2="265.854293039"
	  stroke-width="3"
	  stroke="black"/>
<line x1="392.369011665" y1="265.854293039"
	  x2="391.661904883" y2="265.147186258"
	  stroke-width="3"
	  stroke="black"/>
<line x1="395.369011665" y1="257.369011665"
	  x2="392.369011665" y2="257.369011665"
	  stroke-width="3"
	  stroke="black"/>
<line x1="392.369011665" y1="257.369011665"
	  x2="395.369011665" y2="257.369011665"
	  stroke-width="3"
	  stroke="black"/>
<line x1="395.369011665" y1="257.369011665"
	  x2="395.369011665" y2="254.369011665"
	  stroke-width="3"
	  stroke="black"/>
<line x1="392.369011665" y1="257.369011665"
	  x2="391.661904883" y2="258.076118446"
	  stroke-width="3"
	  stroke="black"/>
<line x1="391.661904883" y1="258.076118446"
	  x2="392.369011665" y2="257.369011665"
	  stroke-width="3"
	  stroke="black"/>
<line x1="392.369011665" y1="257.369011665"
	  x2="391.661904883" y2="256.661904883"
	  stroke-width="3"
	  stroke="black"/>
<line x1="395.369011665" y1="254.369011665"
	  x2="394.661904883" y2="253.661904883"
	  stroke-width="3"
	  stroke="black"/>
<line x1="394.661904883" y1="253.661904883"
	  x2="395.369011665" y2="254.369011665"
	  stroke-width="3"
	  stroke="black"/>
<line x1="395.369011665" y1="254.369011665"
	  x2="396.076118446" y2="253.661904883"
	  stroke-width="3"
	  stroke="black"/>
<line x1="411.611652352" y1="249.611652352"
	  x2="407.369011665" y2="245.369011665"
	  stroke-width="3"
	  stroke="black"/>
<line x1="407.369011665" y1="245.369011665"
	  x2="411.611652352" y2="249.611652352"
	  stroke-width="3"
	  stroke="black"/>
<line x1="411.611652352" y1="249.611652352"
	  x2="415.854293039" y2="245.369011665"
	  stroke-width="3"
	  stroke="black"/>
<line x1="407.369011665" y1="245.369011665"
	  x2="404.369011665" y2="245.369011665"
	  stroke-width="3"
	  stroke="black"/>
<line x1="404.369011665" y1="245.369011665"
	  x2="407.369011665" y2="245.369011665"
	  stroke-width="3"
	  stroke="black"/>
<line x1="407.369011665" y1="245.369011665"
	  x2="407.369011665" y2="242.369011665"
	  stroke-width="3"
	  stroke="black"/>
<line x1="404.369011665" y1="245.369011665"
	  x2="403.661904883" y2="246.076118446"
	  stroke-width="3"
	  stroke="black"/>
<line x1="403.661904883" y1="246.076118446"
	  x2="404.369011665" y2="245.369011665"
	  stroke-width="3"
	  stroke="black"/>
<line x1="404.369011665" y1="245.369011665"
	  x2="403.661904883" y2="244.661904883"
	  stroke-width="3"
	  stroke="black"/>
<line x1="407.369011665" y1="242.369011665"
	  x2="406.661904883" y2="241.661904883"
	  stroke-width="3"
	  stroke="black"/>
<line x1="406.661904883" y1="241.661904883"
	  x2="407.369011665" y2="242.369011665"
	  stroke-width="3"
	  stroke="black"/>
<line x1="407.369011665" y1="242.369011665"
	  x2="408.076118446" y2="241.661904883"
	  stroke-width="3"
	  stroke="black"/>
<line x1="415.854293039" y1="245.369011665"
	  x2="415.854293039" y2="242.369011665"
	  stroke-width="3"
	  stroke="black"/>
<line x1="415.854293039" y1="242.369011665"
	  x2="415.854293039" y2="245.369011665"
	  stroke-width="3"
	  stroke="black"/>
<line x1="415.854293039" y1="245.369011665"
	  x2="418.854293039" y2="245.369011665"
	  stroke-width="3"
	  stroke="black"/>
<line x1="415.854293039" y1="242.369011665"
	  x2="415.147186258" y2="241.661904883"
	  stroke-width="3"
	  stroke="black"/>
<line x1="415.147186258" y1="241.661904883"
	  x2="415.854293039" y2="242.369011665"
	  stroke-width="3"
	  stroke="black"/>
<line x1="415.854293039" y1="242.369011665"
	  x2="416.56139982" y2="241.661904883"
	  stroke-width="3"
	  stroke="black"/>
<line x1="418.854293039" y1="245.369011665"
	  x2="419.56139982" y2="244.661904883"
	  stroke-width="3"
	  stroke="black"/>
<line x1="419.56139982" y1="244.661904883"
	  x2="418.854293039" y2="245.369011665"
	  stroke-width="3"
	  stroke="black"/>
<line x1="418.854293039" y1="245.369011665"
	  x2="419.56139982" y2="246.076118446"
	  stroke-width="3"
	  stroke="black"/>
<line x1="446.966991411" y1="261.611652352"
	  x2="446.966991411" y2="249.611652352"
	  stroke-width="3"
	  stroke="black"/>
<line x1="446.966991411" y1="249.611652352"
	  x2="446.966991411" y2="261.611652352"
	  stroke-width="3"
	  stroke="black"/>
<line x1="446.966991411" y1="261.611652352"
	  x2="458.966991411" y2="261.611652352"
	  stroke-width="3"
	  stroke="black"/>
<line x1="446.966991411" y1="249.611652352"
	  x2="442.724350724" y2="245.369011665"
	  stroke-width="3"
	  stroke="black"/>
<line x1="442.724350724" y1="245.369011665"
	  x2="446.966991411" y2="249.611652352"
	  stroke-width="3"
	  stroke="black"/>
<line x1="446.966991411" y1="249.611652352"
	  x2="451.209632098" y2="245.369011665"
	  stroke-width="3"
	  stroke="black"/>
<line x1="442.724350724" y1="245.369011665"
	  x2="439.724350724" y2="245.369011665"
	  stroke-width="3"
	  stroke="black"/>
<line x1="439.724350724" y1="245.369011665"
	  x2="442.724350724" y2="245.369011665"
	  stroke-width="3"
	  stroke="black"/>
<line x1="442.724350724" y1="245.369011665"
	  x2="442.724350724" y2="242.369011665"
	  stroke-width="3"
	  stroke="black"/>
<line x1="439.724350724" y1="245.369011665"
	  x2="439.017243943" y2="246.076118446"
	  stroke-width="3"
	  stroke="black"/>
<line x1="439.017243943" y1="246.076118446"
	  x2="439.724350724" y2="245.369011665"
	  stroke-width="3"
	  stroke="black"/>
<line x1="439.724350724" y1="245.369011665"
	  x2="439.017243943" y2="244.661904883"
	  stroke-width="3"
	  stroke="black"/>
<line x1="442.724350724" y1="242.369011665"
	  x2="442.017243943" y2="241.661904883"
	  stroke-width="3"
	  stroke="black"/>
<line x1="442.017243943" y1="241.661904883"
	  x2="442.724350724" y2="242.369011665"
	  stroke-width="3"
	  stroke="black"/>
<line x1="442.724350724" y1="242.369011665"
	  x2="443.431457505" y2="241.661904883"
	  stroke-width="3"
	  stroke="black"/>
<line x1="451.209632098" y1="245.369011665"
	  x2="451.209632098" y2="242.369011665"
	  stroke-width="3"
	  stroke="black"/>
<line x1="451.209632098" y1="242.369011665"
	  x2="451.209632098" y2="245.369011665"
	  stroke-width="3"
	  stroke="black"/>
<line x1="451.209632098" y1="245.369011665"
	  x2="454.209632098" y2="245.369011665"
	  stroke-width="3"
	  stroke="black"/>
<line x1="451.209632098" y1="242.369011665"
	  x2="450.502525317" y2="241.661904883"
	  stroke-width="3"
	  stroke="black"/>
<line x1="450.502525317" y1="241.661904883"
	  x2="451.209632098" y2="242.369011665"
	  stroke-width="3"
	  stroke="black"/>
<line x1="451.209632098" y1="242.369011665"
	  x2="451.916738879" y2="241.661904883"
	  stroke-width="3"
	  stroke="black"/>
<line x1="454.209632098" y1="245.369011665"
	  x2="454.916738879" y2="244.661904883"
	  stroke-width="3"
	  stroke="black"/>
<line x1="454.916738879" y1="244.661904883"
	  x2="454.209632098" y2="245.369011665"
	  stroke-width="3"
	  stroke="black"/>
<line x1="454.209632098" y1="245.369011665"
	  x2="454.916738879" y2="246.076118446"
	  stroke-width="3"
	  stroke="black"/>
<line x1="458.966991411" y1="261.611652352"
	  x2="463.209632098" y2="257.369011665"
	  stroke-width="3"
	  stroke="black"/>
<line x1="463.209632098" y1="257.369011665"
	  x2="458.966991411" y2="261.611652352"
	  stroke-width="3"
	  stroke="black"/>
<line x1="458.966991411" y1="261.611652352"
	  x2="463.209632098" y2="265.854293039"
	  stroke-width="3"
	  stroke="black"/>
<line x1="463.209632098" y1="257.369011665"
	  x2="463.209632098" y2="254.369011665"
	  stroke-width="3"
	  stroke="black"/>
<line x1="463.209632098" y1="254.369011665"
	  x2="463.209632098" y2="257.369011665"
	  stroke-width="3"
	  stroke="black"/>
<line x1="463.209632098" y1="257.369011665"
	  x2="466.209632098" y2="257.369011665"
	  stroke-width="3"
	  stroke="black"/>
<line x1="463.209632098" y1="254.369011665"
	  x2="462.502525317" y2="253.661904883"
	  stroke-width="3"
	  stroke="black"/>
<line x1="462.502525317" y1="253.661904883"
	  x2="463.209632098" y2="254.369011665"
	  stroke-width="3"
	  stroke="black"/>
<line x1="463.209632098" y1="254.369011665"
	  x2="463.916738879" y2="253.661904883"
	  stroke-width="3"
	  stroke="black"/>
<line x1="466.209632098" y1="257.369011665"
	  x2="466.916738879" y2="256.661904883"
	  stroke-width="3"
	  stroke="black"/>
<line x1="466.916738879" y1="256.661904883"
	  x2="466.209632098" y2="257.369011665"
	  stroke-width="3"
	  stroke="black"/>
<line x1="466.209632098" y1="257.369011665"
	  x2="466.916738879" y2="258.076118446"
	  stroke-width="3"
	  stroke="black"/>
<line x1="463.209632098" y1="265.854293039"
	  x2="466.209632098" y2="265.854293039"
	  stroke-width="3"
	  stroke="black"/>
<line x1="466.209632098" y1="265.854293039"
	  x2="463.209632098" y2="265.854293039"
	  stroke-width="3"
	  stroke="black"/>
<line x1="463.209632098" y1="265.854293039"
	  x2="463.209632098" y2="268.854293039"
	  stroke-width="3"
	  stroke="black"/>
<line x1="466.209632098" y1="265.854293039"
	  x2="466.916738879" y2="265.147186258"
	  stroke-width="3"
	  stroke="black"/>
<line x1="466.916738879" y1="265.147186258"
	  x2="466.209632098" y2="265.854293039"
	  stroke-width="3"
	  stroke="black"/>
<line x1="466.209632098" y1="265.854293039"
	  x2="466.916738879" y2="266.56139982"
	  stroke-width="3"
	  stroke="black"/>
<line x1="463.209632098" y1="268.854293039"
	  x2="463.916738879" y2="269.56139982"
	  stroke-width="3"
	  stroke="black"/>
<line x1="463.916738879" y1="269.56139982"
	  x2="463.209632098" y2="268.854293039"
	  stroke-width="3"
	  stroke="black"/>
<line x1="463.209632098" y1="268.854293039"
	  x2="462.502525317" y2="269.56139982"
	  stroke-width="3"
	  stroke="black"/>
<line x1="570.710678119" y1="329.289321881"
	  x2="570.710678119" y2="279.289321881"
	  stroke-width="3"
	  stroke="black"/>
<line x1="570.710678119" y1="279.289321881"
	  x2="570.710678119" y2="329.289321881"
	  stroke-width="3"
	  stroke="black"/>
<line x1="570.710678119" y1="329.289321881"
	  x2="620.710678119" y2="329.289321881"
	  stroke-width="3"
	  stroke="black"/>
<line x1="570.710678119" y1="279.289321881"
	  x2="553.033008589" y2="261.611652352"
	  stroke-width="3"
	  stroke="black"/>
<line x1="553.033008589" y1="261.611652352"
	  x2="570.710678119" y2="279.289321881"
	  stroke-width="3"
	  stroke="black"/>
<line x1="570.710678119" y1="279.289321881"
	  x2="588.388347648" y2="261.611652352"
	  stroke-width="3"
	  stroke="black"/>
<line x1="553.033008589" y1="261.611652352"
	  x2="541.033008589" y2="261.611652352"
	  stroke-width="3"
	  stroke="black"/>
<line x1="541.033008589" y1="261.611652352"
	  x2="553.033008589" y2="261.611652352"
	  stroke-width="3"
	  stroke="black"/>
<line x1="553.033008589" y1="261.611652352"
	  x2="553.033008589" y2="249.611652352"
	  stroke-width="3"
	  stroke="black"/>
<line x1="541.033008589" y1="261.611652352"
	  x2="536.790367902" y2="265.854293039"
	  stroke-width="3"
	  stroke="black"/>
<line x1="536.790367902" y1="265.854293039"
	  x2="541.033008589" y2="261.611652352"
	  stroke-width="3"
	  stroke="black"/>
<line x1="541.033008589" y1="261.611652352"
	  x2="536.790367902" y2="257.369011665"
	  stroke-width="3"
	  stroke="black"/>
<line x1="536.790367902" y1="265.854293039"
	  x2="536.790367902" y2="268.854293039"
	  stroke-width="3"
	  stroke="black"/>
<line x1="536.790367902" y1="268.854293039"
	  x2="536.790367902" y2="265.854293039"
	  stroke-width="3"
	  stroke="black"/>
<line x1="536.790367902" y1="265.854293039"
	  x2="533.790367902" y2="265.854293039"
	  stroke-width="3"
	  stroke="black"/>
<line x1="536.790367902" y1="268.854293039"
	  x2="537.497474683" y2="269.56139982"
	  stroke-width="3"
	  stroke="black"/>
<line x1="537.497474683" y1="269.56139982"
	  x2="536.790367902" y2="268.854293039"
	  stroke-width="3"
	  stroke="black"/>
<line x1="536.790367902" y1="268.854293039"
	  x2="536.083261121" y2="269.56139982"
	  stroke-width="3"
	  stroke="black"/>
<line x1="533.790367902" y1="265.854293039"
	  x2="533.083261121" y2="266.56139982"
	  stroke-width="3"
	  stroke="black"/>
<line x1="533.083261121" y1="266.56139982"
	  x2="533.790367902" y2="265.854293039"
	  stroke-width="3"
	  stroke="black"/>
<line x1="533.790367902" y1="265.854293039"
	  x2="533.083261121" y2="265.147186258"
	  stroke-width="3"
	  stroke="black"/>
<line x1="536.790367902" y1="257.369011665"
	  x2="533.790367902" y2="257.369011665"
	  stroke-width="3"
	  stroke="black"/>
<line x1="533.790367902" y1="257.369011665"
	  x2="536.790367902" y2="257.369011665"
	  stroke-width="3"
	  stroke="black"/>
<line x1="536.790367902" y1="257.369011665"
	  x2="536.790367902" y2="254.369011665"
	  stroke-width="3"
	  stroke="black"/>
<line x1="533.790367902" y1="257.369011665"
	  x2="533.083261121" y2="258.076118446"
	  stroke-width="3"
	  stroke="black"/>
<line x1="533.083261121" y1="258.076118446"
	  x2="533.790367902" y2="257.369011665"
	  stroke-width="3"
	  stroke="black"/>
<line x1="533.790367902" y1="257.369011665"
	  x2="533.083261121" y2="256.661904883"
	  stroke-width="3"
	  stroke="black"/>
<line x1="536.790367902" y1="254.369011665"
	  x2="536.083261121" y2="253.661904883"
	  stroke-width="3"
	  stroke="black"/>
<line x1="536.083261121" y1="253.661904883"
	  x2="536.790367902" y2="254.369011665"
	  stroke-width="3"
	  stroke="black"/>
<line x1="536.790367902" y1="254.369011665"
	  x2="537.497474683" y2="253.661904883"
	  stroke-width="3"
	  stroke="black"/>
<line x1="553.033008589" y1="249.611652352"
	  x2="548.790367902" y2="245.369011665"
	  stroke-width="3"
	  stroke="black"/>
<line x1="548.790367902" y1="245.369011665"
	  x2="553.033008589" y2="249.611652352"
	  stroke-width="3"
	  stroke="black"/>
<line x1="553.033008589" y1="249.611652352"
	  x2="557.275649276" y2="245.369011665"
	  stroke-width="3"
	  stroke="black"/>
<line x1="548.790367902" y1="245.369011665"
	  x2="545.790367902" y2="245.369011665"
	  stroke-width="3"
	  stroke="black"/>
<line x1="545.790367902" y1="245.369011665"
	  x2="548.790367902" y2="245.369011665"
	  stroke-width="3"
	  stroke="black"/>
<line x1="548.790367902" y1="245.369011665"
	  x2="548.790367902" y2="242.369011665"
	  stroke-width="3"
	  stroke="black"/>
<line x1="545.790367902" y1="245.369011665"
	  x2="545.083261121" y2="246.076118446"
	  stroke-width="3"
	  stroke="black"/>
<line x1="545.083261121" y1="246.076118446"
	  x2="545.790367902" y2="245.369011665"
	  stroke-width="3"
	  stroke="black"/>
<line x1="545.790367902" y1="245.369011665"
	  x2="545.083261121" y2="244.661904883"
	  stroke-width="3"
	  stroke="black"/>
<line x1="548.790367902" y1="242.369011665"
	  x2="548.083261121" y2="241.661904883"
	  stroke-width="3"
	  stroke="black"/>
<line x1="548.083261121" y1="241.661904883"
	  x2="548.790367902" y2="242.369011665"
	  stroke-width="3"
	  stroke="black"/>
<line x1="548.790367902" y1="242.369011665"
	  x2="549.497474683" y2="241.661904883"
	  stroke-width="3"
	  stroke="black"/>
<line x1="557.275649276" y1="245.369011665"
	  x2="557.275649276" y2="242.369011665"
	  stroke-width="3"
	  stroke="black"/>
<line x1="557.275649276" y1="242.369011665"
	  x2="557.275649276" y2="245.369011665"
	  stroke-width="3"
	  stroke="black"/>
<line x1="557.275649276" y1="245.369011665"
	  x2="560.275649276" y2="245.369011665"
	  stroke-width="3"
	  stroke="black"/>
<line x1="557.275649276" y1="242.369011665"
	  x2="556.568542495" y2="241.661904883"
	  stroke-width="3"
	  stroke="black"/>
<line x1="556.568542495" y1="241.661904883"
	  x2="557.275649276" y2="242.369011665"
	  stroke-width="3"
	  stroke="black"/>
<line x1="557.275649276" y1="242.369011665"
	  x2="557.982756057" y2="241.661904883"
	  stroke-width="3"
	  stroke="black"/>
<line x1="560.275649276" y1="245.369011665"
	  x2="560.982756057" y2="244.661904883"
	  stroke-width="3"
	  stroke="black"/>
<line x1="560.982756057" y1="244.661904883"
	  x2="560.275649276" y2="245.369011665"
	  stroke-width="3"
	  stroke="black"/>
<line x1="560.275649276" y1="245.369011665"
	  x2="560.982756057" y2="246.076118446"
	  stroke-width="3"
	  stroke="black"/>
<line x1="588.388347648" y1="261.611652352"
	  x2="588.388347648" y2="249.611652352"
	  stroke-width="3"
	  stroke="black"/>
<line x1="588.388347648" y1="249.611652352"
	  x2="588.388347648" y2="261.611652352"
	  stroke-width="3"
	  stroke="black"/>
<line x1="588.388347648" y1="261.611652352"
	  x2="600.388347648" y2="261.611652352"
	  stroke-width="3"
	  stroke="black"/>
<line x1="588.388347648" y1="249.611652352"
	  x2="584.145706961" y2="245.369011665"
	  stroke-width="3"
	  stroke="black"/>
<line x1="584.145706961" y1="245.369011665"
	  x2="588.388347648" y2="249.611652352"
	  stroke-width="3"
	  stroke="black"/>
<line x1="588.388347648" y1="249.611652352"
	  x2="592.630988335" y2="245.369011665"
	  stroke-width="3"
	  stroke="black"/>
<line x1="584.145706961" y1="245.369011665"
	  x2="581.145706961" y2="245.369011665"
	  stroke-width="3"
	  stroke="black"/>
<line x1="581.145706961" y1="245.369011665"
	  x2="584.145706961" y2="245.369011665"
	  stroke-width="3"
	  stroke="black"/>
<line x1="584.145706961" y1="245.369011665"
	  x2="584.145706961" y2="242.369011665"
	  stroke-width="3"
	  stroke="black"/>
<line x1="581.145706961" y1="245.369011665"
	  x2="580.43860018" y2="246.076118446"
	  stroke-width="3"
	  stroke="black"/>
<line x1="580.43860018" y1="246.076118446"
	  x2="581.145706961" y2="245.369011665"
	  stroke-width="3"
	  stroke="black"/>
<line x1="581.145706961" y1="245.369011665"
	  x2="580.43860018" y2="244.661904883"
	  stroke-width="3"
	  stroke="black"/>
<line x1="584.145706961" y1="242.369011665"
	  x2="583.43860018" y2="241.661904883"
	  stroke-width="3"
	  stroke="black"/>
<line x1="583.43860018" y1="241.661904883"
	  x2="584.145706961" y2="242.369011665"
	  stroke-width="3"
	  stroke="black"/>
<line x1="584.145706961" y1="242.369011665"
	  x2="584.852813742" y2="241.661904883"
	  stroke-width="3"
	  stroke="black"/>
<line x1="592.630988335" y1="245.369011665"
	  x2="592.630988335" y2="242.369011665"
	  stroke-width="3"
	  stroke="black"/>
<line x1="592.630988335" y1="242.369011665"
	  x2="592.630988335" y2="245.369011665"
	  stroke-width="3"
	  stroke="black"/>
<line x1="592.630988335" y1="245.369011665"
	  x2="595.630988335" y2="245.369011665"
	  stroke-width="3"
	  stroke="black"/>
<line x1="592.630988335" y1="242.369011665"
	  x2="591.923881554" y2="241.661904883"
	  stroke-width="3"
	  stroke="black"/>
<line x1="591.923881554" y1="241.661904883"
	  x2="592.630988335" y2="242.369011665"
	  stroke-width="3"
	  stroke="black"/>
<line x1="592.630988335" y1="242.369011665"
	  x2="593.338095117" y2="241.661904883"
	  stroke-width="3"
	  stroke="black"/>
<line x1="595.630988335" y1="245.369011665"
	  x2="596.338095117" y2="244.661904883"
	  stroke-width="3"
	  stroke="black"/>
<line x1="596.338095117" y1="244.661904883"
	  x2="595.630988335" y2="245.369011665"
	  stroke-width="3"
	  stroke="black"/>
<line x1="595.630988335" y1="245.369011665"
	  x2="596.338095117" y2="246.076118446"
	  stroke-width="3"
	  stroke="black"/>
<line x1="600.388347648" y1="261.611652352"
	  x2="604.630988335" y2="257.369011665"
	  stroke-width="3"
	  stroke="black"/>
<line x1="604.630988335" y1="257.369011665"
	  x2="600.388347648" y2="261.611652352"
	  stroke-width="3"
	  stroke="black"/>
<line x1="600.388347648" y1="261.611652352"
	  x2="604.630988335" y2="265.854293039"
	  stroke-width="3"
	  stroke="black"/>
<line x1="604.630988335" y1="257.369011665"
	  x2="604.630988335" y2="254.369011665"
	  stroke-width="3"
	  stroke="black"/>
<line x1="604.630988335" y1="254.369011665"
	  x2="604.630988335" y2="257.369011665"
	  stroke-width="3"
	  stroke="black"/>
<line x1="604.630988335" y1="257.369011665"
	  x2="607.630988335" y2="257.369011665"
	  stroke-width="3"
	  stroke="black"/>
<line x1="604.630988335" y1="254.369011665"
	  x2="603.923881554" y2="253.661904883"
	  stroke-width="3"
	  stroke="black"/>
<line x1="603.923881554" y1="253.661904883"
	  x2="604.630988335" y2="254.369011665"
	  stroke-width="3"
	  stroke="black"/>
<line x1="604.630988335" y1="254.369011665"
	  x2="605.338095117" y2="253.661904883"
	  stroke-width="3"
	  stroke="black"/>
<line x1="607.630988335" y1="257.369011665"
	  x2="608.338095117" y2="256.661904883"
	  stroke-width="3"
	  stroke="black"/>
<line x1="608.338095117" y1="256.661904883"
	  x2="607.630988335" y2="257.369011665"
	  stroke-width="3"
	  stroke="black"/>
<line x1="607.630988335" y1="257.369011665"
	  x2="608.338095117" y2="258.076118446"
	  stroke-width="3"
	  stroke="black"/>
<line x1="604.630988335" y1="265.854293039"
	  x2="607.630988335" y2="265.854293039"
	  stroke-width="3"
	  stroke="black"/>
<line x1="607.630988335" y1="265.854293039"
	  x2="604.630988335" y2="265.854293039"
	  stroke-width="3"
	  stroke="black"/>
<line x1="604.630988335" y1="265.854293039"
	  x2="604.630988335" y2="268.854293039"
	  stroke-width="3"
	  stroke="black"/>
<line x1="607.630988335" y1="265.854293039"
	  x2="608.338095117" y2="265.147186258"
	  stroke-width="3"
	  stroke="black"/>
<line x1="608.338095117" y1="265.147186258"
	  x2="607.630988335" y2="265.854293039"
	  stroke-width="3"
	  stroke="black"/>
<line x1="607.630988335" y1="265.854293039"
	  x2="608.338095117" y2="266.56139982"
	  stroke-width="3"
	  stroke="black"/>
<line x1="604.630988335" y1="268.854293039"
	  x2="605.338095117" y2="269.56139982"
	  stroke-width="3"
	  stroke="black"/>
<line x1="605.338095117" y1="269.56139982"
	  x2="604.630988335" y2="268.854293039"
	  stroke-width="3"
	  stroke="black"/>
<line x1="604.630988335" y1="268.854293039"
	  x2="603.923881554" y2="269.56139982"
	  stroke-width="3"
	  stroke="black"/>
<line x1="620.710678119" y1="329.289321881"
	  x2="638.388347648" y2="311.611652352"
	  stroke-width="3"
	  stroke="black"/>
<line x1="638.388347648" y1="311.611652352"
	  x2="620.710678119" y2="329.289321881"
	  stroke-width="3"
	  stroke="black"/>
<line x1="620.710678119" y1="329.289321881"
	  x2="638.388347648" y2="346.966991411"
	  stroke-width="3"
	  stroke="black"/>
<line x1="638.388347648" y1="311.611652352"
	  x2="638.388347648" y2="299.611652352"
	  stroke-width="3"
	  stroke="black"/>
<line x1="638.388347648" y1="299.611652352"
	  x2="638.388347648" y2="311.611652352"
	  stroke-width="3"
	  stroke="black"/>
<line x1="638.388347648" y1="311.611652352"
	  x2="650.388347648" y2="311.611652352"
	  stroke-width="3"
	  stroke="black"/>
<line x1="638.388347648" y1="299.611652352"
	  x2="634.145706961" y2="295.369011665"
	  stroke-width="3"
	  stroke="black"/>
<line x1="634.145706961" y1="295.369011665"
	  x2="638.388347648" y2="299.611652352"
	  stroke-width="3"
	  stroke="black"/>
<line x1="638.388347648" y1="299.611652352"
	  x2="642.630988335" y2="295.369011665"
	  stroke-width="3"
	  stroke="black"/>
<line x1="634.145706961" y1="295.369011665"
	  x2="631.145706961" y2="295.369011665"
	  stroke-width="3"
	  stroke="black"/>
<line x1="631.145706961" y1="295.369011665"
	  x2="634.145706961" y2="295.369011665"
	  stroke-width="3"
	  stroke="black"/>
<line x1="634.145706961" y1="295.369011665"
	  x2="634.145706961" y2="292.369011665"
	  stroke-width="3"
	  stroke="black"/>
<line x1="631.145706961" y1="295.369011665"
	  x2="630.43860018" y2="296.076118446"
	  stroke-width="3"
	  stroke="black"/>
<line x1="630.43860018" y1="296.076118446"
	  x2="631.145706961" y2="295.369011665"
	  stroke-width="3"
	  stroke="black"/>
<line x1="631.145706961" y1="295.369011665"
	  x2="630.43860018" y2="294.661904883"
	  stroke-width="3"
	  stroke="black"/>
<line x1="634.145706961" y1="292.369011665"
	  x2="633.43860018" y2="291.661904883"
	  stroke-width="3"
	  stroke="black"/>
<line x1="633.43860018" y1="291.661904883"
	  x2="634.145706961" y2="292.369011665"
	  stroke-width="3"
	  stroke="black"/>
<line x1="634.145706961" y1="292.369011665"
	  x2="634.852813742" y2="291.661904883"
	  stroke-width="3"
	  stroke="black"/>
<line x1="642.630988335" y1="295.369011665"
	  x2="642.630988335" y2="292.369011665"
	  stroke-width="3"
	  stroke="black"/>
<line x1="642.630988335" y1="292.369011665"
	  x2="642.630988335" y2="295.369011665"
	  stroke-width="3"
	  stroke="black"/>
<line x1="642.630988335" y1="295.369011665"
	  x2="645.630988335" y2="295.369011665"
	  stroke-width="3"
	  stroke="black"/>
<line x1="642.630988335" y1="292.369011665"
	  x2="641.923881554" y2="291.661904883"
	  stroke-width="3"
	  stroke="black"/>
<line x1="641.923881554" y1="291.661904883"
	  x2="642.630988335" y2="292.369011665"
	  stroke-width="3"
	  stroke="black"/>
<line x1="642.630988335" y1="292.369011665"
	  x2="643.338095117" y2="291.661904883"
	  stroke-width="3"
	  stroke="black"/>
<line x1="645.630988335" y1="295.369011665"
	  x2="646.338095117" y2="294.661904883"
	  stroke-width="3"
	  stroke="black"/>
<line x1="646.338095117" y1="294.661904883"
	  x2="645.630988335" y2="295.369011665"
	  stroke-width="3"
	  stroke="black"/>
<line x1="645.630988335" y1="295.369011665"
	  x2="646.338095117" y2="296.076118446"
	  stroke-width="3"
	  stroke="black"/>
<line x1="650.388347648" y1="311.611652352"
	  x2="654.630988335" y2="307.369011665"
	  stroke-width="3"
	  stroke="black"/>
<line x1="654.630988335" y1="307.369011665"
	  x2="650.388347648" y2="311.611652352"
	  stroke-width="3"
	  stroke="black"/>
<line x1="650.388347648" y1="311.611652352"
	  x2="654.630988335" y2="315.854293039"
	  stroke-width="3"
	  stroke="black"/>
<line x1="654.630988335" y1="307.369011665"
	  x2="654.630988335" y2="304.369011665"
	  stroke-width="3"
	  stroke="black"/>
<line x1="654.630988335" y1="304.369011665"
	  x2="654.630988335" y2="307.369011665"
	  stroke-width="3"
	  stroke="black"/>
<line x1="654.630988335" y1="307.369011665"
	  x2="657.630988335" y2="307.369011665"
	  stroke-width="3"
	  stroke="black"/>
<line x1="654.630988335" y1="304.369011665"
	  x2="653.923881554" y2="303.661904883"
	  stroke-width="3"
	  stroke="black"/>
<line x1="653.923881554" y1="303.661904883"
	  x2="654.630988335" y2="304.369011665"
	  stroke-width="3"
	  stroke="black"/>
<line x1="654.630988335" y1="304.369011665"
	  x2="655.338095117" y2="303.661904883"
	  stroke-width="3"
	  stroke="black"/>
<line x1="657.630988335" y1="307.369011665"
	  x2="658.338095117" y2="306.661904883"
	  stroke-width="3"
	  stroke="black"/>
<line x1="658.338095117" y1="306.661904883"
	  x2="657.630988335" y2="307.369011665"
	  stroke-width="3"
	  stroke="black"/>
<line x1="657.630988335" y1="307.369011665"
	  x2="658.338095117" y2="308.076118446"
	  stroke-width="3"
	  stroke="black"/>
<line x1="654.630988335" y1="315.854293039"
	  x2="657.630988335" y2="315.854293039"
	  stroke-width="3"
	  stroke="black"/>
<line x1="657.630988335" y1="315.854293039"
	  x2="654.630988335" y2="315.854293039"
	  stroke-width="3"
	  stroke="black"/>
<line x1="654.630988335" y1="315.854293039"
	  x2="654.630988335" y2="318.854293039"
	  stroke-width="3"
	  stroke="black"/>
<line x1="657.630988335" y1="315.854293039"
	  x2="658.338095117" y2="315.147186258"
	  stroke-width="3"
	  stroke="black"/>
<line x1="658.338095117" y1="315.147186258"
	  x2="657.630988335" y2="315.854293039"
	  stroke-width="3"
	  stroke="black"/>
<line x1="657.630988335" y1="315.854293039"
	  x2="658.338095117" y2="316.56139982"
	  stroke-width="3"
	  stroke="black"/>
<line x1="654.630988335" y1="318.854293039"
	  x2="655.338095117" y2="319.56139982"
	  stroke-width="3"
	  stroke="black"/>
<line x1="655.338095117" y1="319.56139982"
	  x2="654.630988335" y2="318.854293039"
	  stroke-width="3"
	  stroke="black"/>
<line x1="654.630988335" y1="318.854293039"
	  x2="653.923881554" y2="319.56139982"
	  stroke-width="3"
	  stroke="black"/>
<line x1="638.388347648" y1="346.966991411"
	  x2="650.388347648" y2="346.966991411"
	  stroke-width="3"
	  stroke="black"/>
<line x1="650.388347648" y1="346.966991411"
	  x2="638.388347648" y2="346.966991411"
	  stroke-width="3"
	  stroke="black"/>
<line x1="638.388347648" y1="346.966991411"
	  x2="638.388347648" y2="358.966991411"
	  stroke-width="3"
	  stroke="black"/>
<line x1="650.388347648" y1="346.966991411"
	  x2="654.630988335" y2="342.724350724"
	  stroke-width="3"
	  stroke="black"/>
<line x1="654.630988335" y1="342.724350724"
	  x2="650.388347648" y2="346.966991411"
	  stroke-width="3"
	  stroke="black"/>
<line x1="650.388347648" y1="346.966991411"
	  x2="654.630988335" y2="351.209632098"
	  stroke-width="3"
	  stroke="black"/>
<line x1="654.630988335" y1="342.724350724"
	  x2="654.630988335" y2="339.724350724"
	  stroke-width="3"
	  stroke="black"/>
<line x1="654.630988335" y1="339.724350724"
	  x2="654.630988335" y2="342.724350724"
	  stroke-width="3"
	  stroke="black"/>
<line x1="654.630988335" y1="342.724350724"
	  x2="657.630988335" y2="342.724350724"
	  stroke-width="3"
	  stroke="black"/>
<line x1="654.630988335" y1="339.724350724"
	  x2="653.923881554" y2="339.017243943"
	  stroke-width="3"
	  stroke="black"/>
<line x1="653.923881554" y1="339.017243943"
	  x2="654.630988335" y2="339.724350724"
	  stroke-width="3"
	  stroke="black"/>
<line x1="654.630988335" y1="339.724350724"
	  x2="655.338095117" y2="339.017243943"
	  stroke-width="3"
	  stroke="black"/>
<line x1="657.630988335" y1="342.724350724"
	  x2="658.338095117" y2="342.017243943"
	  stroke-width="3"
	  stroke="black"/>
<line x1="658.338095117" y1="342.017243943"
	  x2="657.630988335" y2="342.724350724"
	  stroke-width="3"
	  stroke="black"/>
<line x1="657.630988335" y1="342.724350724"
	  x2="658.338095117" y2="343.431457505"
	  stroke-width="3"
	  stroke="black"/>
<line x1="654.630988335" y1="351.209632098"
	  x2="657.630988335" y2="351.209632098"
	  stroke-width="3"
	  stroke="black"/>
<line x1="657.630988335" y1="351.209632098"
	  x2="654.630988335" y2="351.209632098"
	  stroke-width="3"
	  stroke="black"/>
<line x1="654.630988335" y1="351.209632098"
	  x2="654.630988335" y2="354.209632098"
	  stroke-width="3"
	  stroke="black"/>
<line x1="657.630988335" y1="351.209632098"
	  x2="658.338095117" y2="350.502525317"
	  stroke-width="3"
	  stroke="black"/>
<line x1="658.338095117" y1="350.502525317"
	  x2="657.630988335" y2="351.209632098"
	  stroke-width="3"
	  stroke="black"/>
<line x1="657.630988335" y1="351.209632098"
	  x2="658.338095117" y2="351.916738879"
	  stroke-width="3"
	  stroke="black"/>
<line x1="654.630988335" y1="354.209632098"
	  x2="655.338095117" y2="354.916738879"
	  stroke-width="3"
	  stroke="black"/>
<line x1="655.338095117" y1="354.916738879"
	  x2="654.630988335" y2="354.209632098"
	  stroke-width="3"
	  stroke="black"/>
<line x1="654.630988335" y1="354.209632098"
	  x2="653.923881554" y2="354.916738879"
	  stroke-width="3"
	  stroke="black"/>
<line x1="638.388347648" y1="358.966991411"
	  x2="642.630988335" y2="363.209632098"
	  stroke-width="3"
	  stroke="black"/>
<line x1="642.630988335" y1="363.209632098"
	  x2="638.388347648" y2="358.966991411"
	  stroke-width="3"
	  stroke="black"/>
<line x1="638.388347648" y1="358.966991411"
	  x2="634.145706961" y2="363.209632098"
	  stroke-width="3"
	  stroke="black"/>
<line x1="642.630988335" y1="363.209632098"
	  x2="645.630988335" y2="363.209632098"
	  stroke-width="3"
	  stroke="black"/>
<line x1="645.630988335" y1="363.209632098"
	  x2="642.630988335" y2="363.209632098"
	  stroke-width="3"
	  stroke="black"/>
<line x1="642.630988335" y1="363.209632098"
	  x2="642.630988335" y2="366.209632098"
	  stroke-width="3"
	  stroke="black"/>
<line x1="645.630988335" y1="363.209632098"
	  x2="646.338095117" y2="362.502525317"
	  stroke-width="3"
	  stroke="black"/>
<line x1="646.338095117" y1="362.502525317"
	  x2="645.630988335" y2="363.209632098"
	  stroke-width="3"
	  stroke="black"/>
<line x1="645.630988335" y1="363.209632098"
	  x2="646.338095117" y2="363.916738879"
	  stroke-width="3"
	  stroke="black"/>
<line x1="642.630988335" y1="366.209632098"
	  x2="643.338095117" y2="366.916738879"
	  stroke-width="3"
	  stroke="black"/>
<line x1="643.338095117" y1="366.916738879"
	  x2="642.630988335" y2="366.209632098"
	  stroke-width="3"
	  stroke="black"/>
<line x1="642.630988335" y1="366.209632098"
	  x2="641.923881554" y2="366.916738879"
	  stroke-width="3"
	  stroke="black"/>
<line x1="634.145706961" y1="363.209632098"
	  x2="634.145706961" y2="366.209632098"
	  stroke-width="3"
	  stroke="black"/>
<line x1="634.145706961" y1="366.209632098"
	  x2="634.145706961" y2="363.209632098"
	  stroke-width="3"
	  stroke="black"/>
<line x1="634.145706961" y1="363.209632098"
	  x2="631.145706961" y2="363.209632098"
	  stroke-width="3"
	  stroke="black"/>
<line x1="634.145706961" y1="366.209632098"
	  x2="634.852813742" y2="366.916738879"
	  stroke-width="3"
	  stroke="black"/>
<line x1="634.852813742" y1="366.916738879"
	  x2="634.145706961" y2="366.209632098"
	  stroke-width="3"
	  stroke="black"/>
<line x1="634.145706961" y1="366.209632098"
	  x2="633.43860018" y2="366.916738879"
	  stroke-width="3"
	  stroke="black"/>
<line x1="631.145706961" y1="363.209632098"
	  x2="630.43860018" y2="363.916738879"
	  stroke-width="3"
	  stroke="black"/>
<line x1="630.43860018" y1="363.916738879"
	  x2="631.145706961" y2="363.209632098"
	  stroke-width="3"
	  stroke="black"/>
<line x1="631.145706961" y1="363.209632098"
	  x2="630.43860018" y2="362.502525317"
	  stroke-width="3"
	  stroke="black"/>
</svg>
