<?xml version="1.0" encoding="utf-8" ?>
<svg baseProfile="full" height="100%" version="1.1" width="100%" xmlns="http://www.w3.org/2000/svg" xmlns:ev="http://www.w3.org/2001/xml-events" xmlns:xlink="http://www.w3.org/1999/xlink"><defs /><line stroke="black" x1="100" x2="120.0" y1="100" y2="100.0" /><line stroke="black" x1="120.0" x2="110.0" y1="100.0" y2="82.6794919243" /><line stroke="black" x1="110.0" x2="100.0" y1="82.6794919243" y2="100.0" /><line stroke="black" x1="92.5" x2="127.5" y1="104.330127019" y2="104.330127019" /><line stroke="black" x1="127.5" x2="110.0" y1="104.330127019" y2="74.0192378865" /><line stroke="black" x1="110.0" x2="92.5" y1="74.0192378865" y2="104.330127019" /><line stroke="black" x1="85.0" x2="135.0" y1="108.660254038" y2="108.660254038" /><line stroke="black" x1="135.0" x2="110.0" y1="108.660254038" y2="65.3589838486" /><line stroke="black" x1="110.0" x2="85.0" y1="65.3589838486" y2="108.660254038" /><line stroke="black" x1="77.5" x2="142.5" y1="112.990381057" y2="112.990381057" /><line stroke="black" x1="142.5" x2="110.0" y1="112.990381057" y2="56.6987298108" /><line stroke="black" x1="110.0" x2="77.5" y1="56.6987298108" y2="112.990381057" /><line stroke="black" x1="70.0" x2="150.0" y1="117.320508076" y2="117.320508076" /><line stroke="black" x1="150.0" x2="110.0" y1="117.320508076" y2="48.0384757729" /><line stroke="black" x1="110.0" x2="70.0" y1="48.0384757729" y2="117.320508076" /><line stroke="black" x1="62.5" x2="157.5" y1="121.650635095" y2="121.650635095" /><line stroke="black" x1="157.5" x2="110.0" y1="121.650635095" y2="39.3782217351" /><line stroke="black" x1="110.0" x2="62.5" y1="39.3782217351" y2="121.650635095" /><line stroke="black" x1="55.0" x2="165.0" y1="125.980762114" y2="125.980762114" /><line stroke="black" x1="165.0" x2="110.0" y1="125.980762114" y2="30.7179676972" /><line stroke="black" x1="110.0" x2="55.0" y1="30.7179676972" y2="125.980762114" /><line stroke="black" x1="47.5" x2="172.5" y1="130.310889132" y2="130.310889132" /><line stroke="black" x1="172.5" x2="110.0" y1="130.310889132" y2="22.0577136594" /><line stroke="black" x1="110.0" x2="47.5" y1="22.0577136594" y2="130.310889132" /><line stroke="black" x1="40.0" x2="180.0" y1="134.641016151" y2="134.641016151" /><line stroke="black" x1="180.0" x2="110.0" y1="134.641016151" y2="13.3974596216" /><line stroke="black" x1="110.0" x2="40.0" y1="13.3974596216" y2="134.641016151" /><line stroke="black" x1="32.5" x2="187.5" y1="138.97114317" y2="138.97114317" /><line stroke="black" x1="187.5" x2="110.0" y1="138.97114317" y2="4.73720558371" /><line stroke="black" x1="110.0" x2="32.5" y1="4.73720558371" y2="138.97114317" /></svg>