<?xml version="1.0" encoding="utf-8" ?>
<svg baseProfile="full" height="100%" version="1.1" width="100%" xmlns="http://www.w3.org/2000/svg" xmlns:ev="http://www.w3.org/2001/xml-events" xmlns:xlink="http://www.w3.org/1999/xlink"><defs /><line stroke="black" x1="50" x2="150.0" y1="100" y2="100.0" /><line stroke="black" x1="150.0" x2="150.0" y1="100.0" y2="0.0" /><line stroke="black" x1="150.0" x2="50.0" y1="0.0" y2="-1.42108547152e-14" /><line stroke="black" x1="50.0" x2="50.0" y1="-1.42108547152e-14" y2="100.0" /><line stroke="black" x1="50.0" x2="65.0" y1="100.0" y2="100.0" /><line stroke="black" x1="65.0" x2="148.880207807" y1="100.0" y2="85.197610387" /><line stroke="black" x1="148.880207807" x2="134.077818194" y1="85.197610387" y2="1.31740258" /><line stroke="black" x1="134.077818194" x2="50.197610387" y1="1.31740258" y2="16.119792193" /><line stroke="black" x1="50.197610387" x2="65.0" y1="16.119792193" y2="100.0" /><line stroke="black" x1="65.0" x2="77.582031171" y1="100.0" y2="97.7796415581" /><line stroke="black" x1="77.582031171" x2="145.774340512" y1="97.7796415581" y2="72.9381574411" /><line stroke="black" x1="145.774340512" x2="120.932856395" y1="72.9381574411" y2="4.74584810053" /><line stroke="black" x1="120.932856395" x2="52.7405470541" y1="4.74584810053" y2="29.5873322175" /><line stroke="black" x1="52.7405470541" x2="77.582031171" y1="29.5873322175" y2="97.7796415581" /><line stroke="black" x1="77.582031171" x2="87.8108775721" y1="97.7796415581" y2="94.0534189405" /><line stroke="black" x1="87.8108775721" x2="141.375393334" y1="94.0534189405" y2="63.0980836081" /><line stroke="black" x1="141.375393334" x2="110.420058001" y1="63.0980836081" y2="9.53356784645" /><line stroke="black" x1="110.420058001" x2="56.8555422397" y1="9.53356784645" y2="40.4889031788" /><line stroke="black" x1="56.8555422397" x2="87.8108775721" y1="40.4889031788" y2="94.0534189405" /><line stroke="black" x1="87.8108775721" x2="95.8455549364" y1="94.0534189405" y2="89.4101186407" /><line stroke="black" x1="95.8455549364" x2="136.244840566" y1="89.4101186407" y2="55.4727223942" /><line stroke="black" x1="136.244840566" x2="102.30744432" y1="55.4727223942" y2="15.0734367644" /><line stroke="black" x1="102.30744432" x2="61.9081586899" y1="15.0734367644" y2="49.0108330109" /><line stroke="black" x1="61.9081586899" x2="95.8455549364" y1="49.0108330109" y2="89.4101186407" /><line stroke="black" x1="95.8455549364" x2="101.905447781" y1="89.4101186407" y2="84.3195092037" /><line stroke="black" x1="101.905447781" x2="130.822285566" y1="84.3195092037" y2="49.8089867953" /><line stroke="black" x1="130.822285566" x2="96.3117631573" y1="49.8089867953" y2="20.8921490105" /><line stroke="black" x1="96.3117631573" x2="67.3949253725" y1="20.8921490105" y2="55.4026714188" /><line stroke="black" x1="67.3949253725" x2="101.905447781" y1="55.4026714188" y2="84.3195092037" /><line stroke="black" x1="101.905447781" x2="106.242973449" y1="84.3195092037" y2="79.1429308424" /><line stroke="black" x1="106.242973449" x2="125.438371994" y1="79.1429308424" y2="45.831270284" /><line stroke="black" x1="125.438371994" x2="92.1267114354" y1="45.831270284" y2="26.6358717387" /><line stroke="black" x1="92.1267114354" x2="72.9313128901" y1="26.6358717387" y2="59.9475322972" /><line stroke="black" x1="72.9313128901" x2="106.242973449" y1="59.9475322972" y2="79.1429308424" /><line stroke="black" x1="106.242973449" x2="109.12228323" y1="79.1429308424" y2="74.1461817587" /><line stroke="black" x1="109.12228323" x2="120.329415987" y1="74.1461817587" y2="43.2611841574" /><line stroke="black" x1="120.329415987" x2="89.4444183856" y1="43.2611841574" y2="32.0540514009" /><line stroke="black" x1="89.4444183856" x2="78.2372856291" y1="32.0540514009" y2="62.9390490022" /><line stroke="black" x1="78.2372856291" x2="109.12228323" y1="62.9390490022" y2="74.1461817587" /><line stroke="black" x1="109.12228323" x2="110.803353144" y1="74.1461817587" y2="69.5134321185" /><line stroke="black" x1="110.803353144" x2="115.652562073" y1="69.5134321185" y2="41.8318820428" /><line stroke="black" x1="115.652562073" x2="87.9710119974" y1="41.8318820428" y2="36.9826731136" /><line stroke="black" x1="87.9710119974" x2="83.1218030682" y1="36.9826731136" y2="64.6642231893" /><line stroke="black" x1="83.1218030682" x2="110.803353144" y1="64.6642231893" y2="69.5134321185" /><line stroke="black" x1="110.803353144" x2="111.530734483" y1="69.5134321185" y2="65.3611996071" /><line stroke="black" x1="111.530734483" x2="111.500571828" y1="65.3611996071" y2="41.2977779552" /><line stroke="black" x1="111.500571828" x2="87.4371501761" y1="41.2977779552" y2="41.3279406105" /><line stroke="black" x1="87.4371501761" x2="87.4673128313" y1="41.3279406105" y2="65.3913622624" /><line stroke="black" x1="87.4673128313" x2="111.530734483" y1="65.3913622624" y2="65.3611996071" /><line stroke="black" x1="111.530734483" x2="111.526210085" y1="65.3611996071" y2="61.7516863593" /><line stroke="black" x1="111.526210085" x2="107.915618939" y1="61.7516863593" y2="41.4404655671" /><line stroke="black" x1="107.915618939" x2="87.604398147" y1="41.4404655671" y2="45.0510567128" /><line stroke="black" x1="87.604398147" x2="91.2149892927" y1="45.0510567128" y2="65.362277505" /><line stroke="black" x1="91.2149892927" x2="111.526210085" y1="65.362277505" y2="61.7516863593" /><line stroke="black" x1="111.526210085" x2="110.984621413" y1="61.7516863593" y2="58.7050032405" /><line stroke="black" x1="110.984621413" x2="104.901686269" y1="58.7050032405" y2="42.0716082358" /><line stroke="black" x1="104.901686269" x2="88.2682912646" y1="42.0716082358" y2="48.1545433795" /><line stroke="black" x1="88.2682912646" x2="94.3512264083" y1="48.1545433795" y2="64.7879383842" /><line stroke="black" x1="94.3512264083" x2="110.984621413" y1="64.7879383842" y2="58.7050032405" /><line stroke="black" x1="110.984621413" x2="110.072181142" y1="58.7050032405" y2="56.2099939898" /><line stroke="black" x1="110.072181142" x2="102.435340789" y1="56.2099939898" y2="43.0335045452" /><line stroke="black" x1="102.435340789" x2="89.2588513442" y1="43.0335045452" y2="50.6703448978" /><line stroke="black" x1="89.2588513442" x2="96.8956916969" y1="50.6703448978" y2="63.8468343425" /><line stroke="black" x1="96.8956916969" x2="110.072181142" y1="63.8468343425" y2="56.2099939898" /><line stroke="black" x1="110.072181142" x2="108.926655089" y1="56.2099939898" y2="54.2335205731" /><line stroke="black" x1="108.926655089" x2="100.474803735" y1="54.2335205731" y2="44.1979531318" /><line stroke="black" x1="100.474803735" x2="90.4392362935" y1="44.1979531318" y2="52.6498044856" /><line stroke="black" x1="90.4392362935" x2="98.8910876473" y1="52.6498044856" y2="62.6853719269" /><line stroke="black" x1="98.8910876473" x2="108.926655089" y1="62.6853719269" y2="54.2335205731" /><line stroke="black" x1="108.926655089" x2="107.658877386" y1="54.2335205731" y2="52.7281854569" /><line stroke="black" x1="107.658877386" x2="98.9673399373" y1="52.7281854569" y2="45.4639517205" /><line stroke="black" x1="98.9673399373" x2="91.7031062009" y1="45.4639517205" y2="54.1554891688" /><line stroke="black" x1="91.7031062009" x2="100.394643649" y1="54.1554891688" y2="61.4197229052" /><line stroke="black" x1="100.394643649" x2="107.658877386" y1="61.4197229052" y2="52.7281854569" /><line stroke="black" x1="107.658877386" x2="106.355146768" y1="52.7281854569" y2="51.6385503964" /><line stroke="black" x1="106.355146768" x2="97.8550664526" y1="51.6385503964" y2="46.7546750204" /><line stroke="black" x1="97.8550664526" x2="92.9711910766" y1="46.7546750204" y2="55.2547553361" /><line stroke="black" x1="92.9711910766" x2="101.471271392" y1="55.2547553361" y2="60.1386307121" /><line stroke="black" x1="101.471271392" x2="106.355146768" y1="60.1386307121" y2="51.6385503964" /><line stroke="black" x1="106.355146768" x2="105.080134721" y1="51.6385503964" y2="50.90596909" /><line stroke="black" x1="105.080134721" x2="97.0793311656" y1="50.90596909" y2="48.0140891179" /><line stroke="black" x1="97.0793311656" x2="94.1874511934" y1="48.0140891179" y2="56.0148926733" /><line stroke="black" x1="94.1874511934" x2="102.188254749" y1="56.0148926733" y2="58.9067726454" /><line stroke="black" x1="102.188254749" x2="105.080134721" y1="58.9067726454" y2="50.90596909" /><line stroke="black" x1="105.080134721" x2="103.880014188" y1="50.90596909" y2="50.4721870942" /><line stroke="black" x1="103.880014188" x2="96.5838415058" y1="50.4721870942" y2="49.2034795075" /><line stroke="black" x1="96.5838415058" x2="95.3151339191" y1="49.2034795075" y2="56.4996521894" /><line stroke="black" x1="95.3151339191" x2="102.611306601" y1="56.4996521894" y2="57.7683597761" /><line stroke="black" x1="102.611306601" x2="103.880014188" y1="57.7683597761" y2="50.4721870942" /><line stroke="black" x1="103.880014188" x2="102.785588285" y1="50.4721870942" y2="50.2818809562" /><line stroke="black" x1="102.785588285" x2="96.3167362315" y1="50.2818809562" y2="50.2980979401" /><line stroke="black" x1="96.3167362315" x2="96.3329532154" y1="50.2980979401" y2="56.766949994" /><line stroke="black" x1="96.3329532154" x2="102.801805269" y1="56.766949994" y2="56.7507330101" /><line stroke="black" x1="102.801805269" x2="102.785588285" y1="56.7507330101" y2="50.2818809562" /><line stroke="black" x1="102.785588285" x2="101.815260477" y1="50.2818809562" y2="50.2843135038" /><line stroke="black" x1="101.815260477" x2="96.2317932998" y1="50.2843135038" y2="51.2840709164" /><line stroke="black" x1="96.2317932998" x2="97.2315507124" y1="51.2840709164" y2="56.8675380939" /><line stroke="black" x1="97.2315507124" x2="102.81501789" y1="56.8675380939" y2="55.8677806813" /><line stroke="black" x1="102.81501789" x2="101.815260477" y1="55.8677806813" y2="50.2843135038" /><line stroke="black" x1="101.815260477" x2="100.977740401" y1="50.2843135038" y2="50.4342771157" /><line stroke="black" x1="100.977740401" x2="96.288957621" y1="50.4342771157" y2="52.155660204" /><line stroke="black" x1="96.288957621" x2="98.0103407093" y1="52.155660204" y2="56.8444429836" /><line stroke="black" x1="98.0103407093" x2="102.699123489" y1="56.8444429836" y2="55.1230598953" /><line stroke="black" x1="102.699123489" x2="100.977740401" y1="55.1230598953" y2="50.4342771157" /><line stroke="black" x1="100.977740401" x2="100.274422984" y1="50.4342771157" y2="50.6924845789" /><line stroke="black" x1="100.274422984" x2="96.4543569039" y1="50.6924845789" y2="52.912922983" /><line stroke="black" x1="96.4543569039" x2="98.674795308" y1="52.912922983" y2="56.7329890629" /><line stroke="black" x1="98.674795308" x2="102.494861388" y1="56.7329890629" y2="54.5125506588" /><line stroke="black" x1="102.494861388" x2="100.274422984" y1="54.5125506588" y2="50.6924845789" /><line stroke="black" x1="100.274422984" x2="99.7014130717" y1="50.6924845789" y2="51.0255503396" /><line stroke="black" x1="99.7014130717" x2="96.6999542409" y1="51.0255503396" y2="53.5597855004" /><line stroke="black" x1="96.6999542409" x2="99.2341894017" y1="53.5597855004" y2="56.5612443312" /><line stroke="black" x1="99.2341894017" x2="102.235648233" y1="56.5612443312" y2="54.0270091704" /><line stroke="black" x1="102.235648233" x2="99.7014130717" y1="54.0270091704" y2="51.0255503396" /><line stroke="black" x1="99.7014130717" x2="99.2511942471" y1="51.0255503396" y2="51.4056856137" /><line stroke="black" x1="99.2511942471" x2="97.0029644847" y1="51.4056856137" y2="54.1025185904" /><line stroke="black" x1="97.0029644847" x2="99.6997974615" y1="54.1025185904" y2="56.3507483528" /><line stroke="black" x1="99.6997974615" x2="101.948027224" y1="56.3507483528" y2="53.6539153761" /><line stroke="black" x1="101.948027224" x2="99.2511942471" y1="53.6539153761" y2="51.4056856137" /><line stroke="black" x1="99.2511942471" x2="98.9139597828" y1="51.4056856137" y2="51.8102105602" /><line stroke="black" x1="98.9139597828" x2="97.3451393078" y1="51.8102105602" y2="54.5485851331" /><line stroke="black" x1="97.3451393078" x2="100.083513881" y1="54.5485851331" y2="56.117405608" /><line stroke="black" x1="100.083513881" x2="101.652334356" y1="56.117405608" y2="53.3790310352" /><line stroke="black" x1="101.652334356" x2="98.9139597828" y1="53.3790310352" y2="51.8102105602" /><line stroke="black" x1="98.9139597828" x2="98.6786367115" y1="51.8102105602" y2="52.2209667461" /><line stroke="black" x1="98.6786367115" x2="97.7120042504" y1="52.2209667461" y2="54.9058174515" /><line stroke="black" x1="97.7120042504" x2="100.396854956" y1="54.9058174515" y2="55.8724499126" /><line stroke="black" x1="100.396854956" x2="101.363487417" y1="55.8724499126" y2="53.1875992072" /><line stroke="black" x1="101.363487417" x2="98.6786367115" y1="53.1875992072" y2="52.2209667461" /><line stroke="black" x1="98.6786367115" x2="98.5336418423" y1="52.2209667461" y2="52.6236943519" /><line stroke="black" x1="98.5336418423" x2="98.0921108676" y1="52.6236943519" y2="55.1818758177" /><line stroke="black" x1="98.0921108676" x2="100.650292333" y1="55.1818758177" y2="55.6234067924" /><line stroke="black" x1="100.650292333" x2="101.091823308" y1="55.6234067924" y2="53.0652253266" /><line stroke="black" x1="101.091823308" x2="98.5336418423" y1="53.0652253266" y2="52.6236943519" /><line stroke="black" x1="98.5336418423" x2="98.4674121961" y1="52.6236943519" y2="53.0074215718" /><line stroke="black" x1="98.4674121961" x2="98.4763488686" y1="53.0074215718" y2="55.3839366662" /><line stroke="black" x1="98.4763488686" x2="100.852863963" y1="55.3839366662" y2="55.3749999937" /><line stroke="black" x1="100.852863963" x2="100.843927291" y1="55.3749999937" y2="52.9984848993" /><line stroke="black" x1="100.843927291" x2="98.4674121961" y1="52.9984848993" y2="53.0074215718" /><line stroke="black" x1="98.4674121961" x2="98.468752697" y1="53.0074215718" y2="53.363898836" /><line stroke="black" x1="98.468752697" x2="98.8573472868" y1="53.363898836" y2="55.5185599117" /><line stroke="black" x1="98.8573472868" x2="101.012008363" y1="55.5185599117" y2="55.1299653218" /><line stroke="black" x1="101.012008363" x2="100.623413773" y1="55.1299653218" y2="52.9753042461" /><line stroke="black" x1="100.623413773" x2="98.468752697" y1="52.9753042461" y2="53.363898836" /><line stroke="black" x1="98.468752697" x2="98.5270418855" y1="53.363898836" y2="53.6870979973" /><line stroke="black" x1="98.5270418855" x2="99.2289804429" y1="53.6870979973" y2="55.591688074" /><line stroke="black" x1="99.2289804429" x2="101.13357052" y1="55.591688074" y2="54.8897495166" /><line stroke="black" x1="101.13357052" x2="100.431631962" y1="54.8897495166" y2="52.9851594399" /><line stroke="black" x1="100.431631962" x2="98.5270418855" y1="52.9851594399" y2="53.6870979973" /><line stroke="black" x1="98.5270418855" x2="98.6323326691" y1="53.6870979973" y2="53.9727865088" /><line stroke="black" x1="98.6323326691" x2="99.5859838101" y1="53.9727865088" y2="55.6087349255" /><line stroke="black" x1="99.5859838101" x2="101.221932227" y1="55.6087349255" y2="54.6550837845" /><line stroke="black" x1="101.221932227" x2="100.268281086" y1="54.6550837845" y2="53.0191353678" /><line stroke="black" x1="100.268281086" x2="98.6323326691" y1="53.0191353678" y2="53.9727865088" /><line stroke="black" x1="98.6323326691" x2="98.7753803402" y1="53.9727865088" y2="54.2181787713" /><line stroke="black" x1="98.7753803402" x2="99.9236767868" y1="54.2181787713" y2="55.5747273957" /><line stroke="black" x1="99.9236767868" x2="101.280225411" y1="55.5747273957" y2="54.4264309492" /><line stroke="black" x1="101.280225411" x2="100.131928965" y1="54.4264309492" y2="53.0698823248" /><line stroke="black" x1="100.131928965" x2="98.7753803402" y1="53.0698823248" y2="54.2181787713" /><line stroke="black" x1="98.7753803402" x2="98.9476248072" y1="54.2181787713" y2="54.421661065" /><line stroke="black" x1="98.9476248072" x2="100.23778359" y1="54.421661065" y2="55.4944708771" /><line stroke="black" x1="100.23778359" x2="101.310593402" y1="55.4944708771" y2="54.2043120941" /><line stroke="black" x1="101.310593402" x2="100.020434619" y1="54.2043120941" y2="53.131502282" /><line stroke="black" x1="100.020434619" x2="98.9476248072" y1="53.131502282" y2="54.421661065" /><line stroke="black" x1="98.9476248072" x2="99.1411486247" y1="54.421661065" y2="54.5825825368" /><line stroke="black" x1="99.1411486247" x2="100.524339712" y1="54.5825825368" y2="55.3727143957" /><line stroke="black" x1="100.524339712" x2="101.314471571" y1="55.3727143957" y2="53.9895233083" /><line stroke="black" x1="101.314471571" x2="99.9312804836" y1="53.9895233083" y2="53.1993914494" /><line stroke="black" x1="99.9312804836" x2="99.1411486247" y1="53.1993914494" y2="54.5825825368" /><line stroke="black" x1="99.1411486247" x2="99.3486272878" y1="54.5825825368" y2="54.7011023156" /><line stroke="black" x1="99.3486272878" x2="100.779669245" y1="54.7011023156" y2="55.2142980093" /><line stroke="black" x1="100.779669245" x2="101.292864938" y1="55.2142980093" y2="53.7832560523" /><line stroke="black" x1="101.292864938" x2="99.8618229815" y1="53.7832560523" y2="53.2700603586" /><line stroke="black" x1="99.8618229815" x2="99.3486272878" y1="53.2700603586" y2="54.7011023156" /><line stroke="black" x1="99.3486272878" x2="99.5632835813" y1="54.7011023156" y2="54.7780816697" /><line stroke="black" x1="99.5632835813" x2="101.000417539" y1="54.7780816697" y2="55.0242700709" /><line stroke="black" x1="101.000417539" x2="101.24660594" y1="55.0242700709" y2="53.5871361136" /><line stroke="black" x1="101.24660594" x2="99.8094719825" y1="53.5871361136" y2="53.3409477124" /><line stroke="black" x1="99.8094719825" x2="99.5632835813" y1="53.3409477124" y2="54.7780816697" /><line stroke="black" x1="99.5632835813" x2="99.7788536749" y1="54.7780816697" y2="54.8150099299" /><line stroke="black" x1="99.7788536749" x2="101.183623733" y1="54.8150099299" y2="54.8079665545" /><line stroke="black" x1="101.183623733" x2="101.176580358" y1="54.8079665545" y2="53.4031964962" /><line stroke="black" x1="101.176580358" x2="99.7718102996" y1="53.4031964962" y2="53.4102398716" /><line stroke="black" x1="99.7718102996" x2="99.7788536749" y1="53.4102398716" y2="54.8150099299" /><line stroke="black" x1="99.7788536749" x2="99.9895691837" y1="54.8150099299" y2="54.8139534236" /><line stroke="black" x1="99.9895691837" x2="101.326818459" y1="54.8139534236" y2="54.5710485008" /><line stroke="black" x1="101.326818459" x2="101.083913536" y1="54.5710485008" y2="53.2337992259" /><line stroke="black" x1="101.083913536" x2="99.7466642609" y1="53.2337992259" y2="53.4767041487" /><line stroke="black" x1="99.7466642609" x2="99.9895691837" y1="53.4767041487" y2="54.8139534236" /><line stroke="black" x1="99.9895691837" x2="100.190156575" y1="54.8139534236" y2="54.7775176851" /><line stroke="black" x1="100.190156575" x2="101.428133192" y1="54.7775176851" y2="54.3194968276" /><line stroke="black" x1="101.428133192" x2="100.970112335" y1="54.3194968276" y2="53.0815202104" /><line stroke="black" x1="100.970112335" x2="99.7321357174" y1="53.0815202104" y2="53.5395410679" /><line stroke="black" x1="99.7321357174" x2="100.190156575" y1="53.5395410679" y2="54.7775176851" /><line stroke="black" x1="100.190156575" x2="100.375853067" y1="54.7775176851" y2="54.7088145565" /><line stroke="black" x1="100.375853067" x2="101.486409247" y1="54.7088145565" y2="54.0595663539" /><line stroke="black" x1="101.486409247" x2="100.837161044" y1="54.0595663539" y2="52.9490101746" /><line stroke="black" x1="100.837161044" x2="99.7266048648" y1="52.9490101746" y2="53.5982583773" /><line stroke="black" x1="99.7266048648" x2="100.375853067" y1="53.5982583773" y2="54.7088145565" /><line stroke="black" x1="100.375853067" x2="100.542436494" y1="54.7088145565" y2="54.6114273261" /><line stroke="black" x1="100.542436494" x2="101.501296038" y1="54.6114273261" y2="53.797702958" /><line stroke="black" x1="101.501296038" x2="100.68757167" y1="53.797702958" y2="52.838843414" /><line stroke="black" x1="100.68757167" x2="99.7287121263" y1="52.838843414" y2="53.6525677821" /><line stroke="black" x1="99.7287121263" x2="100.542436494" y1="53.6525677821" y2="54.6114273261" /><line stroke="black" x1="100.542436494" x2="100.686265426" y1="54.6114273261" y2="54.4893686709" /><line stroke="black" x1="100.686265426" x2="101.473330078" y1="54.4893686709" y2="53.5404294026" /><line stroke="black" x1="101.473330078" x2="100.52439081" y1="53.5404294026" y2="52.7533647501" /><line stroke="black" x1="100.52439081" x2="99.7373261576" y1="52.7533647501" y2="53.7023040184" /><line stroke="black" x1="99.7373261576" x2="100.686265426" y1="53.7023040184" y2="54.4893686709" /><line stroke="black" x1="100.686265426" x2="100.804325124" y1="54.4893686709" y2="54.3470277807" /><line stroke="black" x1="100.804325124" x2="101.403987992" y1="54.3470277807" y2="53.2942065397" /><line stroke="black" x1="101.403987992" x2="100.351166751" y1="53.2942065397" y2="52.6945436717" /><line stroke="black" x1="100.351166751" x2="99.7515038829" y1="52.6945436717" y2="53.7473649126" /><line stroke="black" x1="99.7515038829" x2="100.804325124" y1="53.7473649126" y2="54.3470277807" /><line stroke="black" x1="100.804325124" x2="100.894274554" y1="54.3470277807" y2="54.1891045945" /><line stroke="black" x1="100.894274554" x2="101.29570874" y1="54.1891045945" y2="53.0652774092" /><line stroke="black" x1="101.29570874" x2="100.171881555" y1="53.0652774092" y2="52.6638432233" /><line stroke="black" x1="100.171881555" x2="99.7704473687" y1="52.6638432233" y2="53.7876704086" /><line stroke="black" x1="99.7704473687" x2="100.894274554" y1="53.7876704086" y2="54.1891045945" /><line stroke="black" x1="100.894274554" x2="100.954489682" y1="54.1891045945" y2="54.0205305167" /><line stroke="black" x1="100.954489682" x2="101.151882085" y1="54.0205305167" y2="52.8595021744" /><line stroke="black" x1="101.151882085" x2="99.9908537427" y1="52.8595021744" y2="52.6621097714" /><line stroke="black" x1="99.9908537427" x2="99.7934613396" y1="52.6621097714" y2="53.8231381137" /><line stroke="black" x1="99.7934613396" x2="100.954489682" y1="53.8231381137" y2="54.0205305167" /><line stroke="black" x1="100.954489682" x2="100.984098542" y1="54.0205305167" y2="53.8463762654" /><line stroke="black" x1="100.984098542" x2="100.97680213" y1="53.8463762654" y2="52.6821919381" /><line stroke="black" x1="100.97680213" x2="99.8126178022" y1="52.6821919381" y2="52.6894883509" /><line stroke="black" x1="99.8126178022" x2="99.8199142151" y1="52.6894883509" y2="53.8536726782" /><line stroke="black" x1="99.8199142151" x2="100.984098542" y1="53.8536726782" y2="53.8463762654" /><line stroke="black" x1="100.984098542" x2="100.98300408" y1="53.8463762654" y2="53.6717486163" /><line stroke="black" x1="100.98300408" x2="100.775586457" y1="53.6717486163" y2="52.5379492642" /><line stroke="black" x1="100.775586457" x2="99.6417871053" y1="52.5379492642" y2="52.7453668872" /><line stroke="black" x1="99.6417871053" x2="99.8492047284" y1="52.7453668872" y2="53.8791662393" /><line stroke="black" x1="99.8492047284" x2="100.98300408" y1="53.8791662393" y2="53.6717486163" /><line stroke="black" x1="100.98300408" x2="100.951891437" y1="53.6717486163" y2="53.5016787135" /><line stroke="black" x1="100.951891437" x2="100.554062959" y1="53.5016787135" y2="52.4305227394" /><line stroke="black" x1="100.554062959" x2="99.4829069848" y1="52.4305227394" y2="52.8283512175" /><line stroke="black" x1="99.4829069848" x2="99.8807354629" y1="52.8283512175" y2="53.8995071916" /><line stroke="black" x1="99.8807354629" x2="100.951891437" y1="53.8995071916" y2="53.5016787135" /><line stroke="black" x1="100.951891437" x2="100.892217165" y1="53.5016787135" y2="53.3410053173" /><line stroke="black" x1="100.892217165" x2="100.318627803" y1="53.3410053173" y2="52.3626821626" /><line stroke="black" x1="100.318627803" x2="99.3403046483" y1="52.3626821626" y2="52.9362715249" /><line stroke="black" x1="99.3403046483" x2="99.9138940106" y1="52.9362715249" y2="53.9145946796" /><line stroke="black" x1="99.9138940106" x2="100.892217165" y1="53.9145946796" y2="53.3410053173" /><line stroke="black" x1="100.892217165" x2="100.806178761" y1="53.3410053173" y2="53.1942568441" /><line stroke="black" x1="100.806178761" x2="100.076079199" y1="53.1942568441" y2="52.3361200044" /><line stroke="black" x1="100.076079199" x2="99.2179423595" y1="52.3361200044" y2="53.0662195662" /><line stroke="black" x1="99.2179423595" x2="99.9480419212" y1="53.0662195662" y2="53.9243564059" /><line stroke="black" x1="99.9480419212" x2="100.806178761" y1="53.9243564059" y2="53.1942568441" /><line stroke="black" x1="100.806178761" x2="100.696663827" y1="53.1942568441" y2="53.0655363182" /><line stroke="black" x1="100.696663827" x2="99.8334325358" y1="53.0655363182" y2="52.3513836588" /><line stroke="black" x1="99.8334325358" x2="99.1192798764" y1="52.3513836588" y2="53.2146149497" /><line stroke="black" x1="99.1192798764" x2="99.9825111673" y1="53.2146149497" y2="53.9287676091" /><line stroke="black" x1="99.9825111673" x2="100.696663827" y1="53.9287676091" y2="53.0655363182" /><line stroke="black" x1="100.696663827" x2="100.567179133" y1="53.0655363182" y2="52.9584134193" /><line stroke="black" x1="100.567179133" x2="99.5977231942" y1="52.9584134193" y2="52.407841775" /><line stroke="black" x1="99.5977231942" x2="99.04715155" y1="52.407841775" y2="53.3772977138" /><line stroke="black" x1="99.04715155" x2="100.016607489" y1="53.3772977138" y2="53.9278693581" /><line stroke="black" x1="100.016607489" x2="100.567179133" y1="53.9278693581" y2="52.9584134193" /><line stroke="black" x1="100.567179133" x2="100.421760742" y1="52.9584134193" y2="52.8758276726" /><line stroke="black" x1="100.421760742" x2="99.375803784" y1="52.8758276726" y2="52.5036866409" /><line stroke="black" x1="99.375803784" x2="99.0036627523" y1="52.5036866409" y2="53.5496435992" /><line stroke="black" x1="99.0036627523" x2="100.049619711" y1="53.5496435992" y2="53.9217846309" /><line stroke="black" x1="100.049619711" x2="100.421760742" y1="53.9217846309" y2="52.8758276726" /><line stroke="black" x1="100.421760742" x2="100.264867198" y1="52.8758276726" y2="52.8200065179" /><line stroke="black" x1="100.264867198" x2="99.1741427432" y1="52.8200065179" y2="52.6359732443" /><line stroke="black" x1="99.1741427432" x2="98.9901094696" y1="52.6359732443" y2="53.7266976996" /><line stroke="black" x1="98.9901094696" x2="100.080833925" y1="53.7266976996" y2="53.9107309732" /><line stroke="black" x1="100.080833925" x2="100.264867198" y1="53.9107309732" y2="52.8200065179" /><line stroke="black" x1="100.264867198" x2="100.10125853" y1="52.8200065179" y2="52.7924015268" /><line stroke="black" x1="100.10125853" x2="98.9986311937" y1="52.7924015268" y2="52.8006943071" /><line stroke="black" x1="98.9986311937" x2="99.0069239739" y1="52.8006943071" y2="53.9033216436" /><line stroke="black" x1="99.0069239739" x2="100.10955131" y1="53.9033216436" y2="53.8950288633" /><line stroke="black" x1="100.10955131" x2="100.10125853" y1="53.8950288633" y2="52.7924015268" /><line stroke="black" x1="100.10125853" x2="99.9358644297" y1="52.7924015268" y2="52.7936454439" /><line stroke="black" x1="99.9358644297" x2="98.8544046462" y1="52.7936454439" y2="52.9928893096" /><line stroke="black" x1="98.8544046462" x2="99.0536485119" y1="52.9928893096" y2="54.0743490931" /><line stroke="black" x1="99.0536485119" x2="100.135108295" y1="54.0743490931" y2="53.8751052274" /><line stroke="black" x1="100.135108295" x2="99.9358644297" y1="53.8751052274" y2="52.7936454439" /><line stroke="black" x1="99.9358644297" x2="99.7736454622" y1="52.7936454439" y2="52.8235320237" /><line stroke="black" x1="99.7736454622" x2="98.7456856355" y1="52.8235320237" y2="53.2067843366" /><line stroke="black" x1="98.7456856355" x2="99.1289379483" y1="53.2067843366" y2="54.2347441633" /><line stroke="black" x1="99.1289379483" x2="100.156897775" y1="54.2347441633" y2="53.8514918505" /><line stroke="black" x1="100.156897775" x2="99.7736454622" y1="53.8514918505" y2="52.8235320237" /><line stroke="black" x1="99.7736454622" x2="99.6194514882" y1="52.8235320237" y2="52.8810198707" /><line stroke="black" x1="99.6194514882" x2="98.6756526546" y1="52.8810198707" y2="53.4359585222" /><line stroke="black" x1="98.6756526546" x2="99.2305913061" y1="53.4359585222" y2="54.3797573558" /><line stroke="black" x1="99.2305913061" x2="100.17439014" y1="54.3797573558" y2="53.8248187043" /><line stroke="black" x1="100.17439014" x2="99.6194514882" y1="53.8248187043" y2="52.8810198707" /><line stroke="black" x1="99.6194514882" x2="99.4778816631" y1="52.8810198707" y2="52.9642606684" /><line stroke="black" x1="99.4778816631" x2="98.6463398737" y1="52.9642606684" y2="53.6735319685" /><line stroke="black" x1="98.6463398737" x2="99.3556111738" y1="53.6735319685" y2="54.505073758" /><line stroke="black" x1="99.3556111738" x2="100.187152963" y1="54.505073758" y2="53.7958024579" /><line stroke="black" x1="100.187152963" x2="99.4778816631" y1="53.7958024579" y2="52.9642606684" /><line stroke="black" x1="99.4778816631" x2="99.3531503947" y1="52.9642606684" y2="53.0706513634" /><line stroke="black" x1="99.3531503947" x2="98.6585711087" y1="53.0706513634" y2="53.9123692976" /><line stroke="black" x1="98.6585711087" x2="99.5002890429" y1="53.9123692976" y2="54.6069485837" /><line stroke="black" x1="99.5002890429" x2="100.194868329" y1="54.6069485837" y2="53.7652306494" /><line stroke="black" x1="100.194868329" x2="99.3531503947" y1="53.7652306494" y2="53.0706513634" /><line stroke="black" x1="99.3531503947" x2="99.2489635018" y1="53.0706513634" y2="53.1969090535" /><line stroke="black" x1="99.2489635018" x2="98.711930384" y1="53.1969090535" y2="54.1452924747" /><line stroke="black" x1="98.711930384" x2="99.6603138051" y1="54.1452924747" y2="54.6823255925" /><line stroke="black" x1="99.6603138051" x2="100.197346923" y1="54.6823255925" y2="53.7339421714" /><line stroke="black" x1="100.197346923" x2="99.2489635018" y1="53.7339421714" y2="53.1969090535" /><line stroke="black" x1="99.2489635018" x2="99.1684085341" y1="53.1969090535" y2="53.3391665667" /><line stroke="black" x1="99.1684085341" x2="98.8047702431" y1="53.3391665667" y2="54.3652962361" /><line stroke="black" x1="98.8047702431" x2="99.8308999125" y1="54.3652962361" y2="54.7289345272" /><line stroke="black" x1="99.8308999125" x2="100.194538204" y1="54.7289345272" y2="53.7028048578" /><line stroke="black" x1="100.194538204" x2="99.1684085341" y1="53.7028048578" y2="53.3391665667" /><line stroke="black" x1="99.1684085341" x2="99.1138627905" y1="53.3391665667" y2="53.4930860171" /><line stroke="black" x1="99.1138627905" x2="98.9342577463" y1="53.4930860171" y2="54.5657593658" /><line stroke="black" x1="98.9342577463" x2="100.006931095" y1="54.5657593658" y2="54.74536441" /><line stroke="black" x1="100.006931095" x2="100.186536139" y1="54.74536441" y2="53.6726910613" /><line stroke="black" x1="100.186536139" x2="99.1138627905" y1="53.6726910613" y2="53.4930860171" /><line stroke="black" x1="99.1138627905" x2="99.0869220339" y1="53.4930860171" y2="53.6539870194" /><line stroke="black" x1="99.0869220339" x2="99.096456889" y1="53.6539870194" y2="54.7406451914" /><line stroke="black" x1="99.096456889" x2="100.183115061" y1="54.7406451914" y2="54.7311103363" /><line stroke="black" x1="100.183115061" x2="100.173580206" y1="54.7311103363" y2="53.6444521643" /><line stroke="black" x1="100.173580206" x2="99.0869220339" y1="53.6444521643" y2="53.6539870194" /><line stroke="black" x1="99.0869220339" x2="99.0883522621" y1="53.6539870194" y2="53.8169857452" /><line stroke="black" x1="99.0883522621" x2="99.2864450142" y1="53.8169857452" y2="54.88468501" /><line stroke="black" x1="99.2864450142" x2="100.354144279" y1="54.88468501" y2="54.6865922579" /><line stroke="black" x1="100.354144279" x2="100.156051527" y1="54.6865922579" y2="53.6188929932" /><line stroke="black" x1="100.156051527" x2="99.0883522621" y1="53.6188929932" y2="53.8169857452" /><line stroke="black" x1="99.0883522621" x2="99.1180661749" y1="53.8169857452" y2="53.9771406349" /><line stroke="black" x1="99.1180661749" x2="99.4984597216" y1="53.9771406349" y2="54.9935386894" /><line stroke="black" x1="99.4984597216" x2="100.514857776" y1="54.9935386894" y2="54.6131451427" /><line stroke="black" x1="100.514857776" x2="100.134464229" y1="54.6131451427" y2="53.5967470882" /><line stroke="black" x1="100.134464229" x2="99.1180661749" y1="53.5967470882" y2="53.9771406349" /><line stroke="black" x1="99.1180661749" x2="99.1751252069" y1="53.9771406349" y2="54.1296003431" /><line stroke="black" x1="99.1751252069" x2="99.7260718108" y1="54.1296003431" y2="55.0639274042" /><line stroke="black" x1="99.7260718108" x2="100.660398872" y1="55.0639274042" y2="54.5129808003" /><line stroke="black" x1="100.660398872" x2="100.109452268" y1="54.5129808003" y2="53.5786537392" /><line stroke="black" x1="100.109452268" x2="99.1751252069" y1="53.5786537392" y2="54.1296003431" /><line stroke="black" x1="99.1751252069" x2="99.2577671975" y1="54.1296003431" y2="54.2697494023" /><line stroke="black" x1="99.2577671975" x2="99.9623789824" y1="54.2697494023" y2="55.093734336" /><line stroke="black" x1="99.9623789824" x2="100.786363916" y1="55.093734336" y2="54.3891225511" /><line stroke="black" x1="100.786363916" x2="100.081752131" y1="54.3891225511" y2="53.5651376174" /><line stroke="black" x1="100.081752131" x2="99.2577671975" y1="53.5651376174" y2="54.2697494023" /><line stroke="black" x1="99.2577671975" x2="99.3634589653" y1="54.2697494023" y2="54.3933471423" /><line stroke="black" x1="99.3634589653" x2="100.200214371" y1="54.3933471423" y2="55.0820701636" /><line stroke="black" x1="100.200214371" x2="100.888937393" y1="55.0820701636" y2="54.2453147574" /><line stroke="black" x1="100.888937393" x2="100.052181987" y1="54.2453147574" y2="53.5565917361" /><line stroke="black" x1="100.052181987" x2="99.3634589653" y1="53.5565917361" y2="54.3933471423" /><line stroke="black" x1="99.3634589653" x2="99.4889722762" y1="54.3933471423" y2="54.4966555955" /><line stroke="black" x1="99.4889722762" x2="100.432363523" y1="54.4966555955" y2="55.0293012627" /><line stroke="black" x1="100.432363523" x2="100.96500919" y1="55.0293012627" y2="54.085910016" /><line stroke="black" x1="100.96500919" x2="100.021617943" y1="54.085910016" y2="53.5532643488" /><line stroke="black" x1="100.021617943" x2="99.4889722762" y1="53.5532643488" y2="54.4966555955" /><line stroke="black" x1="99.4889722762" x2="99.6304809632" y1="54.4966555955" y2="54.5765524456" /><line stroke="black" x1="99.6304809632" x2="100.651783157" y1="54.5765524456" y2="54.937039688" /><line stroke="black" x1="100.651783157" x2="101.0122704" y1="54.937039688" y2="53.9157374937" /><line stroke="black" x1="101.0122704" x2="99.9909682056" y1="53.9157374937" y2="53.5552502513" /><line stroke="black" x1="99.9909682056" x2="99.6304809632" y1="53.5552502513" y2="54.5765524456" /><line stroke="black" x1="99.6304809632" x2="99.7836762923" y1="54.5765524456" y2="54.630625532" /><line stroke="black" x1="99.7836762923" x2="100.851815017" y1="54.630625532" y2="54.8080951919" /><line stroke="black" x1="100.851815017" x2="101.029284677" y1="54.8080951919" y2="53.7399564672" /><line stroke="black" x1="101.029284677" x2="99.9611459522" y1="53.7399564672" y2="53.5624868073" /><line stroke="black" x1="99.9611459522" x2="99.7836762923" y1="53.5624868073" y2="54.630625532" /><line stroke="black" x1="99.7836762923" x2="99.943897101" y1="54.630625532" y2="54.657245981" /><line stroke="black" x1="99.943897101" x2="101.02638823" y1="54.657245981" y2="54.6463907054" /><line stroke="black" x1="101.02638823" x2="101.015532955" y1="54.6463907054" y2="53.5638995761" /><line stroke="black" x1="101.015532955" x2="99.9330418255" y1="53.5638995761" y2="53.5747548517" /><line stroke="black" x1="99.9330418255" x2="99.943897101" y1="53.5747548517" y2="54.657245981" /><line stroke="black" x1="99.943897101" x2="100.10627077" y1="54.657245981" y2="54.6556176896" /><line stroke="black" x1="100.10627077" x2="101.170203991" y1="54.6556176896" y2="54.4568438311" /><line stroke="black" x1="101.170203991" x2="100.971430132" y1="54.4568438311" y2="53.3929106108" /><line stroke="black" x1="100.971430132" x2="99.9074969119" y1="53.3929106108" y2="53.5916844693" /><line stroke="black" x1="99.9074969119" x2="100.10627077" y1="53.5916844693" y2="54.6556176896" /><line stroke="black" x1="100.10627077" x2="100.265860753" y1="54.6556176896" y2="54.6258016108" /><line stroke="black" x1="100.265860753" x2="101.278896881" y1="54.6258016108" y2="54.2452179432" /><line stroke="black" x1="101.278896881" x2="100.898313214" y1="54.2452179432" y2="53.2321818152" /><line stroke="black" x1="100.898313214" x2="99.8852770858" y1="53.2321818152" y2="53.6127654829" /><line stroke="black" x1="99.8852770858" x2="100.265860753" y1="53.6127654829" y2="54.6258016108" /><line stroke="black" x1="100.265860753" x2="100.417816173" y1="54.6258016108" y2="54.5687140607" /><line stroke="black" x1="100.417816173" x2="101.349167897" y1="54.5687140607" y2="54.0179474232" /><line stroke="black" x1="101.349167897" x2="100.79840126" y1="54.0179474232" y2="53.0865956989" /><line stroke="black" x1="100.79840126" x2="99.8670495352" y1="53.0865956989" y2="53.6373623364" /><line stroke="black" x1="99.8670495352" x2="100.417816173" y1="53.6373623364" y2="54.5687140607" /><line stroke="black" x1="100.417816173" x2="100.557518931" y1="54.5687140607" y2="54.4860990651" /><line stroke="black" x1="100.557518931" x2="101.378885081" y1="54.4860990651" y2="53.7819423542" /><line stroke="black" x1="101.378885081" x2="100.67472837" y1="53.7819423542" y2="52.9605762049" /><line stroke="black" x1="100.67472837" x2="99.8533622204" y1="52.9605762049" y2="53.6647329158" /><line stroke="black" x1="99.8533622204" x2="100.557518931" y1="53.6647329158" y2="54.4860990651" /><line stroke="black" x1="100.557518931" x2="100.680723854" y1="54.4860990651" y2="54.3804755584" /><line stroke="black" x1="100.680723854" x2="101.367148684" y1="54.3804755584" y2="53.544378624" /><line stroke="black" x1="101.367148684" x2="100.53105175" y1="53.544378624" y2="52.8579537932" /><line stroke="black" x1="100.53105175" x2="99.8446269193" y1="52.8579537932" y2="53.6940507277" /><line stroke="black" x1="99.8446269193" x2="100.680723854" y1="53.6940507277" y2="54.3804755584" /><line stroke="black" x1="100.680723854" x2="100.783687578" y1="54.3804755584" y2="54.2550610183" /><line stroke="black" x1="100.783687578" x2="101.314318848" y1="54.2550610183" y2="53.312479838" /><line stroke="black" x1="101.314318848" x2="100.371737667" y1="53.312479838" y2="52.7818485687" /><line stroke="black" x1="100.371737667" x2="99.841106398" y1="52.7818485687" y2="53.724429749" /><line stroke="black" x1="99.841106398" x2="100.783687578" y1="53.724429749" y2="54.2550610183" /><line stroke="black" x1="100.783687578" x2="100.863282269" y1="54.2550610183" y2="54.1136738412" /><line stroke="black" x1="100.863282269" x2="101.222004931" y1="54.1136738412" y2="53.0932976899" /><line stroke="black" x1="101.222004931" x2="100.201628779" y1="53.0932976899" y2="52.7345750279" /><line stroke="black" x1="100.201628779" x2="99.8429061174" y1="52.7345750279" y2="53.7549511792" /><line stroke="black" x1="99.8429061174" x2="100.863282269" y1="53.7549511792" y2="54.1136738412" /><line stroke="black" x1="100.863282269" x2="100.917090668" y1="54.1136738412" y2="53.9606174185" /><line stroke="black" x1="100.917090668" x2="101.093016821" y1="53.9606174185" y2="52.8934974894" /><line stroke="black" x1="101.093016821" x2="100.025896891" y1="52.8934974894" y2="52.7175713369" /><line stroke="black" x1="100.025896891" x2="99.8499707389" y1="52.7175713369" y2="53.784691266" /><line stroke="black" x1="99.8499707389" x2="100.917090668" y1="53.784691266" y2="53.9606174185" /><line stroke="black" x1="100.917090668" x2="100.943479591" y1="53.9606174185" y2="53.8005494292" /><line stroke="black" x1="100.943479591" x2="100.931279674" y1="53.8005494292" y2="52.7191553861" /><line stroke="black" x1="100.931279674" x2="99.8498856311" y1="52.7191553861" y2="52.7313553029" /><line stroke="black" x1="99.8498856311" x2="99.8620855479" y1="52.7313553029" y2="53.812749346" /><line stroke="black" x1="99.8620855479" x2="100.943479591" y1="53.812749346" y2="53.8005494292" /><line stroke="black" x1="100.943479591" x2="100.941649603" y1="53.8005494292" y2="53.6383403227" /><line stroke="black" x1="100.941649603" x2="100.741714695" y1="53.6383403227" y2="52.5755734748" /><line stroke="black" x1="100.741714695" x2="99.678947847" y1="52.5755734748" y2="52.7755083833" /><line stroke="black" x1="99.678947847" x2="99.8788827555" y1="52.7755083833" y2="53.8382752312" /><line stroke="black" x1="99.8788827555" x2="100.941649603" y1="53.8382752312" y2="53.6383403227" /><line stroke="black" x1="100.941649603" x2="100.911659367" y1="53.6383403227" y2="53.4789252955" /><line stroke="black" x1="100.911659367" x2="100.530089563" y1="53.4789252955" y2="52.4671184197" /><line stroke="black" x1="100.530089563" x2="99.5182826874" y1="52.4671184197" y2="52.8486882236" /><line stroke="black" x1="99.5182826874" x2="99.8998524913" y1="52.8486882236" y2="53.8604950994" /><line stroke="black" x1="99.8998524913" x2="100.911659367" y1="53.8604950994" y2="53.4789252955" /><line stroke="black" x1="100.911659367" x2="100.854423897" y1="53.4789252955" y2="53.3271542642" /><line stroke="black" x1="100.854423897" x2="100.302843074" y1="53.3271542642" y2="52.3970885198" /><line stroke="black" x1="100.302843074" x2="99.3727773298" y1="52.3970885198" y2="52.9486693421" /><line stroke="black" x1="99.3727773298" x2="99.9243581522" y1="52.9486693421" y2="53.8787350865" /><line stroke="black" x1="99.9243581522" x2="100.854423897" y1="53.8787350865" y2="53.3271542642" /><line stroke="black" x1="100.854423897" x2="100.771686773" y1="53.3271542642" y2="53.1876444025" /><line stroke="black" x1="100.771686773" x2="100.066889319" y1="53.1876444025" y2="52.36761327" /><line stroke="black" x1="100.066889319" x2="99.246858187" y1="52.36761327" y2="53.0724107237" /><line stroke="black" x1="99.246858187" x2="99.9516556407" y1="53.0724107237" y2="53.8924418562" /><line stroke="black" x1="99.9516556407" x2="100.771686773" y1="53.8924418562" y2="53.1876444025" /><line stroke="black" x1="100.771686773" x2="100.665967155" y1="53.1876444025" y2="53.0646397326" /><line stroke="black" x1="100.665967155" x2="99.8294073752" y1="53.0646397326" y2="52.3795884816" /><line stroke="black" x1="99.8294073752" x2="99.1443561242" y1="52.3795884816" y2="53.2161482615" /><line stroke="black" x1="99.1443561242" x2="99.9809159041" y1="53.2161482615" y2="53.9011995126" /><line stroke="black" x1="99.9809159041" x2="100.665967155" y1="53.9011995126" y2="53.0646397326" /><line stroke="black" x1="100.665967155" x2="100.540483188" y1="53.0646397326" y2="52.961882045" /><line stroke="black" x1="100.540483188" x2="99.5976228989" y1="52.961882045" y2="52.4326489428" /><line stroke="black" x1="99.5976228989" x2="99.0683897967" y1="52.4326489428" y2="53.375509232" /><line stroke="black" x1="99.0683897967" x2="100.011250086" y1="53.375509232" y2="53.9047423342" /><line stroke="black" x1="100.011250086" x2="100.540483188" y1="53.9047423342" y2="52.961882045" /><line stroke="black" x1="100.540483188" x2="100.399054145" y1="52.961882045" y2="52.8824970796" /><line stroke="black" x1="100.399054145" x2="99.3785882857" y1="52.8824970796" y2="52.5251794563" /><line stroke="black" x1="99.3785882857" x2="99.0212706623" y1="52.5251794563" y2="53.5456453154" /><line stroke="black" x1="99.0212706623" x2="100.041736521" y1="53.5456453154" y2="53.9029629387" /><line stroke="black" x1="100.041736521" x2="100.399054145" y1="53.9029629387" y2="52.8824970796" /><line stroke="black" x1="100.399054145" x2="100.245984266" y1="52.8824970796" y2="52.8288994361" /><line stroke="black" x1="100.245984266" x2="99.1789680773" y1="52.8288994361" y2="52.654363921" /><line stroke="black" x1="99.1789680773" x2="99.0044325622" y1="52.654363921" y2="53.7213801096" /><line stroke="black" x1="99.0044325622" x2="100.071448751" y1="53.7213801096" y2="53.8959156247" /><line stroke="black" x1="100.071448751" x2="100.245984266" y1="53.8959156247" y2="52.8288994361" /><line stroke="black" x1="100.245984266" x2="100.085931838" y1="52.8288994361" y2="52.8027191089" /><line stroke="black" x1="100.085931838" x2="99.0048361591" y1="52.8027191089" y2="52.8162709668" /><line stroke="black" x1="99.0048361591" x2="99.018388017" y1="52.8162709668" y2="53.8973666452" /><line stroke="black" x1="99.018388017" x2="100.099483696" y1="53.8973666452" y2="53.8838147873" /><line stroke="black" x1="100.099483696" x2="100.085931838" y1="53.8838147873" y2="52.8027191089" /><line stroke="black" x1="100.085931838" x2="99.9237674858" y1="52.8027191089" y2="52.8047518876" /><line stroke="black" x1="99.9237674858" x2="98.8614909192" y1="52.8047518876" y2="53.0059735376" /><line stroke="black" x1="98.8614909192" x2="99.0627125693" y1="53.0059735376" y2="54.0682501042" /><line stroke="black" x1="99.0627125693" x2="100.124989136" y1="54.0682501042" y2="53.8670284542" /><line stroke="black" x1="100.124989136" x2="99.9237674858" y1="53.8670284542" y2="52.8047518876" /><line stroke="black" x1="99.9237674858" x2="99.7644260008" y1="52.8047518876" y2="52.8349351351" /><line stroke="black" x1="99.7644260008" x2="98.7532939985" y1="52.8349351351" y2="53.2176987847" /><line stroke="black" x1="98.7532939985" x2="99.1360576481" y1="53.2176987847" y2="54.228830787" /><line stroke="black" x1="99.1360576481" x2="100.14718965" y1="54.228830787" y2="53.8460671375" /><line stroke="black" x1="100.14718965" x2="99.7644260008" y1="53.8460671375" y2="52.8349351351" /><line stroke="black" x1="99.7644260008" x2="99.6127562005" y1="52.8349351351" y2="52.8923496825" /><line stroke="black" x1="99.6127562005" x2="98.6835375416" y1="52.8923496825" y2="53.4450037079" /><line stroke="black" x1="98.6835375416" x2="99.236191567" y1="53.4450037079" y2="54.3742223667" /><line stroke="black" x1="99.236191567" x2="100.165410226" y1="54.3742223667" y2="53.8215683414" /><line stroke="black" x1="100.165410226" x2="99.6127562005" y1="53.8215683414" y2="52.8923496825" /><line stroke="black" x1="99.6127562005" x2="99.4733734017" y1="52.8923496825" y2="52.9752477863" /><line stroke="black" x1="99.4733734017" x2="98.6543439917" y1="52.9752477863" y2="53.6809712002" /><line stroke="black" x1="98.6543439917" x2="99.3600674056" y1="53.6809712002" y2="54.5000006102" /><line stroke="black" x1="99.3600674056" x2="100.179096816" y1="54.5000006102" y2="53.7942771963" /><line stroke="black" x1="100.179096816" x2="99.4733734017" y1="53.7942771963" y2="52.9752477863" /><line stroke="black" x1="99.4733734017" x2="99.3505189902" y1="52.9752477863" y2="53.0811062984" /><line stroke="black" x1="99.3505189902" x2="98.6666014788" y1="53.0811062984" y2="53.9184205283" /><line stroke="black" x1="98.6666014788" x2="99.5039157087" y1="53.9184205283" y2="54.6023380396" /><line stroke="black" x1="99.5039157087" x2="100.18783322" y1="54.6023380396" y2="53.7650238097" /><line stroke="black" x1="100.18783322" x2="99.3505189902" y1="53.7650238097" y2="53.0811062984" /><line stroke="black" x1="99.3505189902" x2="99.2479313635" y1="53.0811062984" y2="53.2067034329" /><line stroke="black" x1="99.2479313635" x2="98.7199367717" y1="53.2067034329" y2="54.1501258426" /><line stroke="black" x1="98.7199367717" x2="99.6633591814" y1="54.1501258426" y2="54.6781204344" /><line stroke="black" x1="99.6633591814" x2="100.191353773" y1="54.6781204344" y2="53.7346980247" /><line stroke="black" x1="100.191353773" x2="99.2479313635" y1="53.7346980247" y2="53.2067034329" /><line stroke="black" x1="99.2479313635" x2="99.1687321747" y1="53.2067034329" y2="53.3482167943" /><line stroke="black" x1="99.1687321747" x2="98.8127266159" y1="53.3482167943" y2="54.3690360672" /><line stroke="black" x1="98.8127266159" x2="99.8335458888" y1="54.3690360672" y2="54.7250416259" /><line stroke="black" x1="99.8335458888" x2="100.189551448" y1="54.7250416259" y2="53.7042223531" /><line stroke="black" x1="100.189551448" x2="99.1687321747" y1="53.7042223531" y2="53.3482167943" /><line stroke="black" x1="99.1687321747" x2="99.1153313409" y1="53.3482167943" y2="53.5013396853" /><line stroke="black" x1="99.1153313409" x2="98.9421471155" y1="53.5013396853" y2="54.5684894753" /><line stroke="black" x1="98.9421471155" x2="100.009296906" y1="54.5684894753" y2="54.7416737006" /><line stroke="black" x1="100.009296906" x2="100.182481131" y1="54.7416737006" y2="53.6745239106" /><line stroke="black" x1="100.182481131" x2="99.1153313409" y1="53.6745239106" y2="53.5013396853" /><line stroke="black" x1="99.1153313409" x2="99.0893537071" y1="53.5013396853" y2="53.6614121538" /><line stroke="black" x1="99.0893537071" x2="99.1042596543" y1="53.6614121538" y2="54.7424164201" /><line stroke="black" x1="99.1042596543" x2="100.185263921" y1="54.7424164201" y2="54.7275104729" /><line stroke="black" x1="100.185263921" x2="100.170357973" y1="54.7275104729" y2="53.6465062066" /><line stroke="black" x1="100.170357973" x2="99.0893537071" y1="53.6465062066" y2="53.6614121538" /><line stroke="black" x1="99.0893537071" x2="99.0915895992" y1="53.6614121538" y2="53.8235627937" /></svg>