<?xml version="1.0" encoding="utf-8" ?>
<svg baseProfile="full" height="100%" version="1.1" width="100%" xmlns="http://www.w3.org/2000/svg" xmlns:ev="http://www.w3.org/2001/xml-events" xmlns:xlink="http://www.w3.org/1999/xlink"><defs /><line stroke="black" x1="200" x2="400" y1="200" y2="200" /><line stroke="black" x1="200" x2="0" y1="200" y2="200" /><line stroke="black" x1="200" x2="0" y1="200" y2="200" /><line stroke="black" x1="200" x2="400" y1="200" y2="200" /><line stroke="black" x1="200" x2="380" y1="220" y2="200" /><line stroke="black" x1="200" x2="20" y1="180" y2="200" /><line stroke="black" x1="200" x2="20" y1="220" y2="200" /><line stroke="black" x1="200" x2="380" y1="180" y2="200" /><line stroke="black" x1="200" x2="360" y1="240" y2="200" /><line stroke="black" x1="200" x2="40" y1="160" y2="200" /><line stroke="black" x1="200" x2="40" y1="240" y2="200" /><line stroke="black" x1="200" x2="360" y1="160" y2="200" /><line stroke="black" x1="200" x2="340" y1="260" y2="200" /><line stroke="black" x1="200" x2="60" y1="140" y2="200" /><line stroke="black" x1="200" x2="60" y1="260" y2="200" /><line stroke="black" x1="200" x2="340" y1="140" y2="200" /><line stroke="black" x1="200" x2="320" y1="280" y2="200" /><line stroke="black" x1="200" x2="80" y1="120" y2="200" /><line stroke="black" x1="200" x2="80" y1="280" y2="200" /><line stroke="black" x1="200" x2="320" y1="120" y2="200" /><line stroke="black" x1="200" x2="300" y1="300" y2="200" /><line stroke="black" x1="200" x2="100" y1="100" y2="200" /><line stroke="black" x1="200" x2="100" y1="300" y2="200" /><line stroke="black" x1="200" x2="300" y1="100" y2="200" /><line stroke="black" x1="200" x2="280" y1="320" y2="200" /><line stroke="black" x1="200" x2="120" y1="80" y2="200" /><line stroke="black" x1="200" x2="120" y1="320" y2="200" /><line stroke="black" x1="200" x2="280" y1="80" y2="200" /><line stroke="black" x1="200" x2="260" y1="340" y2="200" /><line stroke="black" x1="200" x2="140" y1="60" y2="200" /><line stroke="black" x1="200" x2="140" y1="340" y2="200" /><line stroke="black" x1="200" x2="260" y1="60" y2="200" /><line stroke="black" x1="200" x2="240" y1="360" y2="200" /><line stroke="black" x1="200" x2="160" y1="40" y2="200" /><line stroke="black" x1="200" x2="160" y1="360" y2="200" /><line stroke="black" x1="200" x2="240" y1="40" y2="200" /><line stroke="black" x1="200" x2="220" y1="380" y2="200" /><line stroke="black" x1="200" x2="180" y1="20" y2="200" /><line stroke="black" x1="200" x2="180" y1="380" y2="200" /><line stroke="black" x1="200" x2="220" y1="20" y2="200" /><line stroke="black" x1="200" x2="200" y1="400" y2="200" /><line stroke="black" x1="200" x2="200" y1="0" y2="200" /><line stroke="black" x1="200" x2="200" y1="400" y2="200" /><line stroke="black" x1="200" x2="200" y1="0" y2="200" /></svg>